<svg width="33" height="21" viewBox="0 0 33 21" fill="none" xmlns="http://www.w3.org/2000/svg">
<rect x="0.476562" width="31.9771" height="20.3491" rx="1.45351" fill="#0D0C0C"/>
<g clip-path="url(#clip0_3112_756)">
<path d="M5.45757 7.8063L4.93192 6.52852L4.40939 7.8063H5.45757ZM17.0302 7.29739C16.9248 7.36166 16.8003 7.36367 16.6507 7.36367H15.7181V6.65182H16.6632C16.7971 6.65182 16.9366 6.65767 17.0271 6.70926C17.1267 6.7564 17.1881 6.85573 17.1881 6.9931C17.1885 7.13274 17.1295 7.24545 17.0302 7.29739ZM23.6818 7.8063L23.151 6.52852L22.6228 7.8063H23.6818ZM11.2829 9.189H10.4957L10.4929 6.67884L9.3799 9.189H8.7061L7.59024 6.67674V9.189H6.02931L5.73442 8.47408H4.13627L3.83827 9.189H3.00486L4.37919 5.98447H5.51965L6.82487 9.01858V5.98447H8.07743L9.08181 8.15816L10.0044 5.98447H11.2829V9.189ZM14.4187 9.189H11.8547V5.98447H14.4191V6.65182H12.6228V7.2298H14.3761V7.88657H12.6228V8.52567H14.4191L14.4187 9.189ZM18.034 6.84795C18.034 7.35816 17.6923 7.62293 17.4931 7.70146C17.661 7.76573 17.8046 7.87844 17.8727 7.972C17.9813 8.13079 18 8.27358 18 8.55916V9.189H17.2256L17.2228 8.78494C17.2228 8.59196 17.2412 8.31424 17.1017 8.16052C16.9894 8.04781 16.8186 8.02324 16.5421 8.02324H15.7181V9.189H14.9506V5.98447H16.7162C17.1086 5.98447 17.3977 5.99435 17.6454 6.13775C17.8883 6.28124 18.034 6.48996 18.034 6.84795ZM19.2622 9.189H18.4795V5.98447H19.2622V9.189ZM28.3476 9.189H27.2599L25.8051 6.78368V9.189H24.2418L23.9433 8.47408H22.3491L22.0591 9.189H21.1607C20.7881 9.189 20.3153 9.10672 20.0477 8.83443C19.7778 8.56257 19.638 8.19401 19.638 7.61096C19.638 7.13615 19.7212 6.70105 20.0519 6.35845C20.3 6.10225 20.6886 5.98447 21.2173 5.98447H21.9601V6.67097H21.233C20.953 6.67097 20.7951 6.71232 20.6424 6.86089C20.5116 6.99616 20.4218 7.25131 20.4218 7.58708C20.4218 7.93003 20.4902 8.17766 20.6331 8.33916C20.751 8.46622 20.9658 8.50486 21.1677 8.50486H21.5122L22.594 5.98473H23.7442L25.0436 9.01578V5.98473H26.2124L27.5614 8.21622V5.98473H28.3476V9.189ZM2.99589 9.81849H4.30733L4.60293 9.10672H5.26465L5.55953 9.81849H8.13987V9.27443L8.37054 9.82059H9.70978L9.93982 9.26621V9.81849H16.3523L16.3491 8.65002H16.4734C16.5602 8.65308 16.5855 8.6613 16.5855 8.80444V9.81849H19.902V9.54664C20.1699 9.68978 20.5859 9.81849 21.1337 9.81849H22.5289L22.8272 9.10672H23.4892L23.7813 9.81849H26.4699V9.14222L26.8769 9.81849H29.0319V5.34912H26.8991V5.87683L26.6007 5.34912H24.4125V5.87683L24.1387 5.34912H21.183C20.6889 5.34912 20.2538 5.41811 19.9023 5.61004V5.34912H17.8629V5.61004C17.6395 5.41199 17.3352 5.34912 16.9963 5.34912H9.54501L9.04504 6.50325L8.53157 5.34912H6.18439V5.87683L5.92663 5.34912H3.9254L2.99554 7.47402L1.92969 9.81849H2.99589Z" fill="white"/>
<path d="M30.7527 12.8404V10.79H28.8299C28.4011 10.79 28.0892 10.8924 27.8689 11.0513V10.79H25.7667C25.4304 10.79 25.0359 10.8727 24.8496 11.0513V10.79H21.0956V11.0513C20.7968 10.8365 20.2924 10.79 20.0602 10.79H17.584V11.0513C17.3477 10.8231 16.8224 10.79 16.5019 10.79H13.7307L13.0968 11.4738L12.5029 10.79H8.36328V15.2591H12.4248L13.0781 14.5643L13.6932 15.2591L16.1972 15.2618V14.2101H16.4429C16.7752 14.2152 17.1666 14.2019 17.5125 14.053V15.2587H19.5773V14.0936H19.6776C19.8046 14.0936 19.8166 14.0994 19.8166 14.2259V15.2587H26.0893C26.488 15.2587 26.9043 15.1569 27.135 14.9728V15.2587H29.1245C29.5387 15.2587 29.9429 15.201 30.2507 15.0528V15.048C30.7 14.7627 30.9987 14.263 30.9987 13.6923C30.9995 13.3791 30.9085 13.0874 30.7527 12.8404ZM16.4772 13.5556H15.5192V14.6303H14.0267L13.0812 13.5693L12.0986 14.6303H9.05688V11.4267H12.1455L13.0902 12.4767L14.0669 11.4267H16.5206C17.1298 11.4267 17.8144 11.5951 17.8144 12.4818C17.8144 13.3723 17.1486 13.5556 16.4772 13.5556ZM21.0987 13.4101C21.2073 13.5666 21.2229 13.7124 21.226 13.9949V14.6303H20.4554V14.2293C20.4554 14.0365 20.4738 13.7514 20.3308 13.6021C20.2185 13.4877 20.0481 13.4597 19.7674 13.4597H18.9468V14.6299H18.1756V11.4267H19.9482C20.3371 11.4267 20.6199 11.4437 20.8721 11.578C21.1147 11.7238 21.2673 11.9236 21.2673 12.2891C21.2673 12.8005 20.9249 13.0618 20.7229 13.1413C20.8929 13.2045 21.0331 13.3169 21.0987 13.4101ZM24.2553 12.0897H22.457V12.672H24.2116V13.3255H22.457V13.9628L24.2553 13.9659V14.6305H21.6926V11.4267H24.2553V12.0897ZM26.2108 14.6303H24.7154V13.9433H26.2052C26.3509 13.9433 26.4543 13.9245 26.5192 13.8638C26.5712 13.8145 26.6098 13.7421 26.6098 13.6554C26.6098 13.5618 26.5688 13.4877 26.5157 13.4433C26.4567 13.3941 26.3762 13.3723 26.2423 13.3723C25.5245 13.3479 24.6248 13.3941 24.6248 12.3803C24.6248 11.9158 24.918 11.427 25.7225 11.427H27.2623V12.1088H25.8537C25.7143 12.1088 25.6233 12.1139 25.5459 12.1662C25.462 12.2184 25.4304 12.2949 25.4304 12.397C25.4304 12.5176 25.5022 12.6 25.5987 12.6358C25.6799 12.6635 25.7667 12.6717 25.8974 12.6717L26.311 12.6837C26.7277 12.6932 27.014 12.7652 27.1881 12.9408C27.3376 13.0945 27.4175 13.2895 27.4175 13.6188C27.4171 14.3085 26.9855 14.6303 26.2108 14.6303ZM30.1633 14.3211C29.961 14.525 29.6345 14.6303 29.2087 14.6303H27.7259V13.9433H29.2029C29.3496 13.9433 29.452 13.9245 29.5138 13.8638C29.5672 13.8145 29.6046 13.7421 29.6046 13.6554C29.6046 13.5618 29.5672 13.4877 29.5106 13.4433C29.4551 13.3941 29.3739 13.3723 29.24 13.3723C28.519 13.3479 27.6194 13.3941 27.6194 12.3803C27.6194 11.9158 27.915 11.427 28.7213 11.427H30.2216V12.1085H28.8518C28.7123 12.1085 28.6193 12.1139 28.5409 12.1665C28.4597 12.2181 28.4284 12.2952 28.4284 12.3968C28.4284 12.518 28.4968 12.5996 28.5968 12.6355C28.6779 12.6638 28.7646 12.6717 28.8924 12.6717L29.3084 12.683C29.7285 12.6932 30.0088 12.7652 30.1796 12.9408C30.2105 12.9654 30.2296 12.9928 30.2511 13.02C30.2423 13.0089 30.234 12.9979 30.225 12.9866C30.3579 13.1621 30.4377 13.3801 30.4377 13.6172C30.4377 13.8887 30.3329 14.1349 30.1633 14.3211ZM11.7468 12.0897L12.5872 13.0228L11.7097 13.9628H9.82154V13.3255H11.5074V12.6717H9.82154V12.0897H11.7468ZM13.5756 13.0341L14.7549 11.771V14.3388L13.5756 13.0341ZM16.9904 12.4821C16.9904 12.7598 16.8069 12.9053 16.5115 12.9053H15.5192V12.0897H16.5209C16.7978 12.0897 16.9904 12.202 16.9904 12.4821ZM20.4176 12.4357C20.4176 12.5726 20.3583 12.683 20.2584 12.7428C20.1557 12.8035 20.0287 12.809 19.8794 12.809H18.9461V12.0897H19.8916C20.0287 12.0897 20.1657 12.0924 20.2584 12.1474C20.3583 12.199 20.4176 12.2984 20.4176 12.4357Z" fill="white"/>
</g>
<defs>
<clipPath id="clip0_3112_756">
<rect width="29.0701" height="10.1745" fill="white" transform="translate(1.92969 5.0874)"/>
</clipPath>
</defs>
</svg>
