<svg width="33" height="21" viewBox="0 0 33 21" fill="none" xmlns="http://www.w3.org/2000/svg">
<g clip-path="url(#clip0_3112_760)">
<rect x="0.5" y="0.363647" width="31.9771" height="20.3491" rx="1.45351" fill="#0D0C0C"/>
<g clip-path="url(#clip1_3112_760)">
<path fill-rule="evenodd" clip-rule="evenodd" d="M32.4485 0.363647H0.505859V9.59046C4.13901 8.60132 7.58393 8.0208 10.7825 7.73097C11.6208 5.68794 13.408 3.97523 16.4241 3.99765C19.4491 4.02003 21.5054 5.65658 22.1605 7.84655C27.0915 8.4075 30.6932 9.51338 32.483 10.185L32.4485 0.363647Z" fill="white"/>
<mask id="path-3-outside-1_3112_760" maskUnits="userSpaceOnUse" x="-0.494141" y="2.99744" width="34" height="12" fill="black">
<rect fill="white" x="-0.494141" y="2.99744" width="34" height="12"/>
<path fill-rule="evenodd" clip-rule="evenodd" d="M22.1605 7.84655C27.0915 8.4075 30.6932 9.51338 32.483 10.185L32.4485 13.3398C26.6878 11.4375 16.4468 8.5871 0.505859 12.6256V9.59046C4.13901 8.60132 7.58393 8.0208 10.7825 7.73097C11.6208 5.68794 13.408 3.97523 16.4241 3.99765C19.4491 4.02003 21.5054 5.65658 22.1605 7.84655Z"/>
</mask>
<path d="M22.1605 7.84655L21.4643 8.05483L21.6017 8.51442L22.0784 8.56864L22.1605 7.84655ZM32.483 10.185L33.2097 10.193L33.2153 9.68358L32.7383 9.5046L32.483 10.185ZM32.4485 13.3398L32.2206 14.0299L33.1643 14.3416L33.1752 13.3478L32.4485 13.3398ZM0.505859 12.6256H-0.220893V13.5594L0.684338 13.3301L0.505859 12.6256ZM0.505859 9.59046L0.314946 8.88923L-0.220893 9.03512V9.59046H0.505859ZM10.7825 7.73097L10.8481 8.45475L11.2874 8.41495L11.4548 8.00685L10.7825 7.73097ZM16.4241 3.99765L16.4187 4.72439L16.4187 4.72439L16.4241 3.99765ZM22.0784 8.56864C26.9441 9.12217 30.4877 10.2125 32.2276 10.8654L32.7383 9.5046C30.8987 8.81426 27.2389 7.69283 22.2427 7.12445L22.0784 8.56864ZM31.7563 10.1771L31.7218 13.3319L33.1752 13.3478L33.2097 10.193L31.7563 10.1771ZM32.6764 12.6497C26.8351 10.7208 16.4462 7.83754 0.327381 11.9211L0.684338 13.3301C16.4474 9.33666 26.5405 12.1542 32.2206 14.0299L32.6764 12.6497ZM1.23261 12.6256V9.59046H-0.220893V12.6256H1.23261ZM0.696772 10.2917C4.28694 9.31425 7.68981 8.74093 10.8481 8.45475L10.7169 7.00718C7.47805 7.30066 3.99108 7.88839 0.314946 8.88923L0.696772 10.2917ZM11.4548 8.00685C12.2014 6.1874 13.7509 4.70455 16.4187 4.72439L16.4295 3.27092C13.0651 3.24591 11.0402 5.18847 10.1101 7.45508L11.4548 8.00685ZM16.4187 4.72439C19.162 4.74468 20.9109 6.20501 21.4643 8.05483L22.8568 7.63827C22.0999 5.10814 19.7362 3.29538 16.4294 3.27092L16.4187 4.72439Z" fill="white" mask="url(#path-3-outside-1_3112_760)"/>
<path d="M7.63867 17.2177L9.77823 14.0731H10.5718L12.8514 17.2177H12.0112L11.3616 16.2652H9.03264L8.42181 17.2177H7.63867ZM9.24521 15.9263H11.1345L10.5523 15.0558C10.3759 14.7914 10.2436 14.574 10.1581 14.4035C10.0868 14.6056 9.98687 14.8055 9.85727 15.0046L9.24521 15.9263ZM16.5922 17.2177V16.8832C16.277 17.1408 15.8504 17.2691 15.311 17.2691C15.0738 17.2691 14.8507 17.2434 14.6446 17.1922C14.4384 17.141 14.2854 17.0757 14.1855 16.9982C14.0845 16.9199 14.0144 16.8247 13.9741 16.7119C13.947 16.6358 13.9326 16.5158 13.9326 16.351V14.9401H14.616V16.2031C14.616 16.4052 14.6302 16.5406 14.6575 16.6109C14.7016 16.7127 14.7922 16.7917 14.9311 16.8503C15.0711 16.9082 15.2435 16.9368 15.4485 16.9368C15.6533 16.9368 15.8453 16.9075 16.0254 16.8483C16.2057 16.7889 16.3328 16.7077 16.4066 16.606C16.4818 16.5035 16.5194 16.3548 16.5194 16.1609V14.9404H17.2028V17.2181H16.5922V17.2177ZM18.8625 17.2177V14.94H19.4771V15.2849C19.634 15.1238 19.7793 15.0169 19.9128 14.9656C20.0451 14.9143 20.1915 14.8879 20.3511 14.8879C20.5818 14.8879 20.8152 14.9297 21.0538 15.0124L20.8178 15.3712C20.6519 15.3148 20.4846 15.2871 20.3173 15.2871C20.1669 15.2871 20.0333 15.3127 19.9141 15.3631C19.7947 15.4144 19.7105 15.4847 19.66 15.5748C19.5834 15.7116 19.5458 15.8618 19.5458 16.025V17.2176H18.8625V17.2177ZM24.6885 16.9366C24.4343 17.0581 24.1904 17.1437 23.9571 17.1942C23.7223 17.244 23.4709 17.269 23.2025 17.269C22.7589 17.269 22.4193 17.2082 22.1807 17.0859C21.9434 16.9636 21.8241 16.807 21.8241 16.6172C21.8241 16.5052 21.8681 16.4034 21.959 16.3111C22.0484 16.2189 22.1662 16.1449 22.3117 16.0893C22.4581 16.0336 22.6215 15.9912 22.8043 15.9626C22.938 15.9429 23.1402 15.923 23.4112 15.9049C23.9636 15.8674 24.3707 15.8235 24.6314 15.7715C24.634 15.7189 24.6353 15.6852 24.6353 15.6713C24.6353 15.5139 24.5705 15.4026 24.4408 15.3389C24.2671 15.251 24.0065 15.2079 23.6628 15.2079C23.3413 15.2079 23.104 15.2393 22.9496 15.303C22.7966 15.3667 22.6838 15.4795 22.6098 15.6414L21.942 15.5894C22.0029 15.4284 22.1028 15.2972 22.2416 15.1984C22.3804 15.0989 22.5825 15.022 22.8458 14.9685C23.1091 14.9151 23.4137 14.8879 23.7612 14.8879C24.1061 14.8879 24.385 14.9114 24.6002 14.9568C24.8155 15.003 24.9737 15.06 25.0762 15.1296C25.1773 15.1993 25.2474 15.2863 25.2887 15.3925C25.3108 15.4584 25.3225 15.5771 25.3225 15.7484V16.2632C25.3225 16.6227 25.3367 16.8496 25.3667 16.9441C25.3952 17.0392 25.4535 17.1308 25.5391 17.2179H24.8246C24.7545 17.1379 24.7079 17.0443 24.6885 16.9366ZM24.6313 16.0742C24.3823 16.132 24.0103 16.1803 23.5148 16.2207C23.2334 16.2433 23.0337 16.269 22.9183 16.2976C22.8016 16.3261 22.7108 16.3678 22.6486 16.4235C22.585 16.4785 22.5527 16.5393 22.5527 16.6066C22.5527 16.7099 22.6227 16.7955 22.7601 16.8643C22.8976 16.9324 23.1 16.9668 23.3657 16.9668C23.6289 16.9668 23.8636 16.9346 24.0686 16.8695C24.2733 16.8043 24.4251 16.715 24.5211 16.6022C24.595 16.515 24.6313 16.3863 24.6313 16.2164V16.0742Z" fill="white"/>
</g>
</g>
<defs>
<clipPath id="clip0_3112_760">
<rect x="0.5" y="0.363647" width="31.9771" height="20.3491" rx="1.45351" fill="white"/>
</clipPath>
<clipPath id="clip1_3112_760">
<rect width="31.9771" height="19.6223" fill="white" transform="translate(0.5 0.363647)"/>
</clipPath>
</defs>
</svg>
