<svg width="64" height="64" viewBox="0 0 64 64" fill="none" xmlns="http://www.w3.org/2000/svg">
<rect width="64" height="64" rx="32" fill="black"/>
<path d="M41.4001 22.5467C40.1777 21.3119 38.7216 20.3329 37.1169 19.6667C35.5122 19.0006 33.7909 18.6606 32.0534 18.6667C24.7734 18.6667 18.8401 24.6 18.8401 31.88C18.8401 34.2133 19.4534 36.48 20.6001 38.48L18.7334 45.3333L25.7334 43.4933C27.6667 44.5467 29.8401 45.1067 32.0534 45.1067C39.3334 45.1067 45.2667 39.1733 45.2667 31.8933C45.2667 28.36 43.8934 25.04 41.4001 22.5467ZM32.0534 42.8667C30.0801 42.8667 28.1467 42.3333 26.4534 41.3333L26.0534 41.0933L21.8934 42.1867L23.0001 38.1333L22.7334 37.72C21.6371 35.9693 21.0549 33.9457 21.0534 31.88C21.0534 25.8267 25.9867 20.8933 32.0401 20.8933C34.9734 20.8933 37.7334 22.04 39.8001 24.12C40.8234 25.1386 41.6343 26.3502 42.1859 27.6846C42.7375 29.0189 43.0188 30.4495 43.0134 31.8933C43.0401 37.9467 38.1067 42.8667 32.0534 42.8667ZM38.0801 34.6533C37.7467 34.4933 36.1201 33.6933 35.8267 33.5733C35.5201 33.4667 35.3067 33.4133 35.0801 33.7333C34.8534 34.0667 34.2267 34.8133 34.0401 35.0267C33.8534 35.2533 33.6534 35.28 33.3201 35.1067C32.9867 34.9467 31.9201 34.5867 30.6667 33.4667C29.6801 32.5867 29.0267 31.5067 28.8267 31.1733C28.6401 30.84 28.8001 30.6667 28.9734 30.4933C29.1201 30.3467 29.3067 30.1067 29.4667 29.92C29.6267 29.7333 29.6934 29.5867 29.8001 29.3733C29.9067 29.1467 29.8534 28.96 29.7734 28.8C29.6934 28.64 29.0267 27.0133 28.7601 26.3467C28.4934 25.7067 28.2134 25.7867 28.0134 25.7733H27.3734C27.1467 25.7733 26.8001 25.8533 26.4934 26.1867C26.2001 26.52 25.3467 27.32 25.3467 28.9467C25.3467 30.5733 26.5334 32.1467 26.6934 32.36C26.8534 32.5867 29.0267 35.92 32.3334 37.3467C33.1201 37.6933 33.7334 37.8933 34.2134 38.04C35.0001 38.2933 35.7201 38.2533 36.2934 38.1733C36.9334 38.08 38.2534 37.3733 38.5201 36.6C38.8001 35.8267 38.8001 35.1733 38.7067 35.0267C38.6134 34.88 38.4134 34.8133 38.0801 34.6533Z" fill="white"/>
</svg>
