<svg width="33" height="21" viewBox="0 0 33 21" fill="none" xmlns="http://www.w3.org/2000/svg">
<g clip-path="url(#clip0_3112_692)">
<rect x="0.960881" y="0.460881" width="31.0782" height="19.4419" fill="#0D0C0C" stroke="#0D0C0C" stroke-width="0.921762"/>
<path d="M5.84666 14.6413C5.84666 15.0167 6.12606 15.0605 6.37463 15.0605C7.47112 15.0605 7.8309 14.2661 7.8309 13.5398C7.8309 12.6283 7.22203 11.9703 6.24271 11.9703C6.03418 11.9703 5.93823 11.9846 5.84666 11.9898V14.6413ZM5.34921 12.3551C5.34921 11.9167 5.11089 11.9455 4.88281 11.9409V11.8142C5.08058 11.8234 5.28336 11.8234 5.48165 11.8234C5.69468 11.8234 5.9839 11.8142 6.35968 11.8142C7.6738 11.8142 8.3896 12.6571 8.3896 13.5202C8.3896 14.0033 8.09515 15.2166 6.29853 15.2166C6.04004 15.2166 5.80119 15.207 5.56276 15.207C5.33458 15.207 5.11089 15.2115 4.88281 15.2166V15.0898C5.18699 15.0603 5.33458 15.0507 5.34921 14.7193V12.3551Z" fill="white"/>
<path d="M9.10932 12.2381C8.97709 12.2381 8.86065 12.1212 8.86065 11.9944C8.86065 11.8724 8.98263 11.76 9.10932 11.76C9.24103 11.76 9.3581 11.8626 9.3581 11.9944C9.3581 12.1263 9.24615 12.2381 9.10932 12.2381ZM8.56641 15.0897H8.66257C8.80462 15.0897 8.90622 15.0898 8.90622 14.9285V13.6077C8.90622 13.3935 8.83023 13.3638 8.64219 13.2667V13.1889C8.88072 13.1201 9.16514 13.0282 9.18521 13.0134C9.22096 12.994 9.25096 12.9887 9.27677 12.9887C9.30165 12.9887 9.3121 13.018 9.3121 13.0574V14.9287C9.3121 15.09 9.42395 15.09 9.56621 15.09H9.65213V15.2168C9.47956 15.2168 9.30165 15.2071 9.11956 15.2071C8.93685 15.2071 8.75403 15.2116 8.56641 15.2168V15.0897Z" fill="white"/>
<path d="M10.1337 13.637C10.1337 13.4569 10.0777 13.4083 9.83959 13.3155V13.223C10.0574 13.1547 10.2653 13.0911 10.5092 12.9886C10.5246 12.9886 10.5393 12.9984 10.5393 13.0372V13.3542C10.829 13.1547 11.0777 12.9885 11.4183 12.9885C11.849 12.9885 12.0012 13.2908 12.0012 13.6711V14.9284C12.0012 15.0896 12.1132 15.0896 12.2551 15.0896H12.3467V15.2165C12.1685 15.2165 11.9911 15.2068 11.8086 15.2068C11.6258 15.2068 11.4429 15.2113 11.2602 15.2165V15.0896H11.3518C11.4939 15.0896 11.595 15.0896 11.595 14.9284V13.6666C11.595 13.3884 11.4183 13.2521 11.1286 13.2521C10.9661 13.2521 10.7073 13.3786 10.5393 13.4862V14.9285C10.5393 15.0897 10.6515 15.0897 10.7936 15.0897H10.8848V15.2166C10.7073 15.2166 10.5296 15.2069 10.3466 15.2069C10.1643 15.2069 9.98133 15.2114 9.79883 15.2166V15.0897H9.89039C10.0323 15.0897 10.1337 15.0897 10.1337 14.9285V13.637Z" fill="white"/>
<path d="M13.6328 13.7151C13.7594 13.7151 13.7743 13.6517 13.7743 13.5929C13.7743 13.3448 13.6171 13.1449 13.3327 13.1449C13.0234 13.1449 12.8103 13.3638 12.7494 13.7151H13.6328ZM12.7343 13.8714C12.7239 13.9152 12.7239 13.9881 12.7343 14.154C12.7641 14.6169 13.0743 14.997 13.4799 14.997C13.7594 14.997 13.9779 14.8507 14.1653 14.6707L14.2361 14.7389C14.0025 15.0362 13.7134 15.2898 13.2976 15.2898C12.4906 15.2898 12.3281 14.5387 12.3281 14.227C12.3281 13.2714 12.9979 12.9885 13.3528 12.9885C13.7643 12.9885 14.2061 13.2371 14.2109 13.7539C14.2109 13.7836 14.2109 13.8124 14.2061 13.8418L14.1602 13.8713H12.7343V13.8714Z" fill="white"/>
<path d="M14.3281 15.0898H14.4653C14.6068 15.0898 14.7084 15.0898 14.7084 14.9286V13.5591C14.7084 13.4083 14.5208 13.3786 14.4446 13.3395V13.2666C14.815 13.1154 15.0181 12.9885 15.0645 12.9885C15.0942 12.9885 15.1095 13.0032 15.1095 13.0522V13.4909H15.1201C15.2466 13.3008 15.4602 12.9885 15.7696 12.9885C15.8963 12.9885 16.0586 13.0713 16.0586 13.2469C16.0586 13.3785 15.9626 13.496 15.8207 13.496C15.6627 13.496 15.6627 13.3784 15.485 13.3784C15.3988 13.3784 15.1146 13.4908 15.1146 13.7835V14.9283C15.1146 15.0895 15.216 15.0895 15.3581 15.0895H15.6421V15.2163C15.3631 15.2112 15.1505 15.2067 14.9322 15.2067C14.724 15.2067 14.5107 15.2112 14.3281 15.2163V15.0898Z" fill="white"/>
<path d="M16.2808 14.5385C16.3471 14.8602 16.5497 15.1336 16.9207 15.1336C17.2197 15.1336 17.3313 14.9579 17.3313 14.7875C17.3313 14.212 16.2253 14.3974 16.2253 13.6127C16.2253 13.3393 16.4538 12.9885 17.012 12.9885C17.1742 12.9885 17.3924 13.0326 17.59 13.1302L17.6257 13.627H17.509C17.4584 13.3201 17.2809 13.1447 16.9557 13.1447C16.7528 13.1447 16.5602 13.2566 16.5602 13.4662C16.5602 14.0369 17.7373 13.8611 17.7373 14.6265C17.7373 14.948 17.4687 15.2896 16.8644 15.2896C16.6616 15.2896 16.4228 15.2212 16.2456 15.1238L16.1895 14.5631L16.2808 14.5385Z" fill="white"/>
<path d="M22.3197 12.6965H22.1931C22.0965 12.1266 21.6753 11.8973 21.1073 11.8973C20.523 11.8973 19.6758 12.2723 19.6758 13.4423C19.6758 14.4273 20.4068 15.1343 21.1882 15.1343C21.6902 15.1343 22.1072 14.8026 22.2086 14.2906L22.3252 14.3197L22.2086 15.0317C21.9955 15.1586 21.4218 15.2904 21.0865 15.2904C19.8995 15.2904 19.1484 14.5541 19.1484 13.4573C19.1484 12.4578 20.0772 11.741 21.0718 11.741C21.4827 11.741 21.8785 11.8682 22.2692 11.9998L22.3197 12.6965Z" fill="white"/>
<path d="M22.5039 15.0901H22.6C22.7425 15.0901 22.8438 15.0901 22.8438 14.9289V12.2144C22.8438 11.8974 22.7678 11.8876 22.5748 11.8339V11.7559C22.7777 11.6926 22.991 11.6051 23.0978 11.5461C23.1529 11.5173 23.194 11.4924 23.2088 11.4924C23.2399 11.4924 23.2499 11.5221 23.2499 11.5612V14.929C23.2499 15.0902 23.3617 15.0902 23.5037 15.0902H23.5895V15.2171C23.4176 15.2171 23.2399 15.2074 23.0571 15.2074C22.8745 15.2074 22.692 15.2119 22.5039 15.2171V15.0901Z" fill="white"/>
<path d="M25.7619 14.948C25.7619 15.0361 25.8174 15.0407 25.9036 15.0407C25.9648 15.0407 26.0405 15.0361 26.107 15.0361V15.1387C25.8886 15.1579 25.4724 15.2604 25.3758 15.2897L25.3505 15.2748V14.88C25.0463 15.1187 24.8125 15.2897 24.4517 15.2897C24.1778 15.2897 23.8937 15.1187 23.8937 14.7098V13.4615C23.8937 13.3345 23.8736 13.2126 23.5898 13.1886V13.0957C23.7727 13.0909 24.1778 13.0618 24.244 13.0618C24.3003 13.0618 24.3003 13.0957 24.3003 13.2031V14.4606C24.3003 14.607 24.3003 15.0258 24.7417 15.0258C24.914 15.0258 25.1424 14.8993 25.3554 14.7291V13.4175C25.3554 13.3201 25.112 13.2665 24.9296 13.218V13.1303C25.3858 13.1006 25.6704 13.0619 25.7211 13.0619C25.762 13.0619 25.762 13.0958 25.762 13.1496V14.948H25.7619Z" fill="white"/>
<path d="M26.7727 14.6659C26.7727 14.8512 26.9555 15.1633 27.2954 15.1633C27.8384 15.1633 28.0666 14.6514 28.0666 14.2173C28.0666 13.691 27.6509 13.2525 27.2552 13.2525C27.0666 13.2525 26.9096 13.3696 26.7727 13.4818V14.6659ZM26.7727 13.3399C26.9756 13.1747 27.2498 12.989 27.5288 12.989C28.1176 12.989 28.4728 13.4818 28.4728 14.013C28.4728 14.6514 27.9855 15.2903 27.2595 15.2903C26.8843 15.2903 26.6864 15.173 26.5541 15.1194L26.4024 15.2315L26.2959 15.1781C26.3413 14.8905 26.3669 14.6077 26.3669 14.3102V12.2144C26.3669 11.8974 26.2905 11.8876 26.0977 11.8339V11.7559C26.3009 11.6926 26.5138 11.6051 26.6203 11.5461C26.6763 11.5173 26.7168 11.4924 26.7322 11.4924C26.7625 11.4924 26.7727 11.5222 26.7727 11.5612V13.3399Z" fill="white"/>
<path d="M4.87695 18.051H4.91573C5.01503 18.051 5.11998 18.0379 5.11998 17.8997V16.5102C5.11998 16.3719 5.01503 16.3588 4.91573 16.3588H4.87695V16.2791C4.98462 16.2791 5.15029 16.2896 5.28597 16.2896C5.42394 16.2896 5.58941 16.2791 5.71923 16.2791V16.3588H5.68025C5.58136 16.3588 5.47621 16.3719 5.47621 16.5102V17.8997C5.47621 18.0379 5.58136 18.051 5.68025 18.051H5.71923V18.1307C5.5868 18.1307 5.4207 18.1204 5.28315 18.1204C5.14757 18.1204 4.98462 18.1307 4.87695 18.1307V18.051Z" fill="white"/>
<path d="M5.70762 18.1198L5.70772 18.0634H5.68107C5.58229 18.0634 5.46491 18.0468 5.46428 17.9003V16.5107C5.46491 16.3641 5.58229 16.3477 5.68107 16.3477H5.70762V16.2911C5.5802 16.2912 5.42017 16.3017 5.28627 16.3017C5.15509 16.3017 4.99631 16.2918 4.88938 16.2911V16.3477H4.91583C5.01429 16.3477 5.13188 16.3641 5.13188 16.5107V17.9003C5.13188 18.0468 5.01429 18.0634 4.91583 18.0634H4.88938V18.1198C4.99631 18.1189 5.15227 18.1091 5.28324 18.1091C5.41777 18.1091 5.57738 18.1191 5.70762 18.1198ZM5.71954 18.1425C5.58595 18.1425 5.42069 18.1319 5.28324 18.1319C5.14809 18.1319 4.98565 18.1425 4.87726 18.1425H4.86523V18.1312V18.0516V18.0401H4.87726H4.91583C5.01607 18.0378 5.10711 18.03 5.10805 17.9003V16.5107C5.10722 16.3809 5.01607 16.3725 4.91583 16.3708H4.86523V16.3592V16.2681H4.87726C4.98565 16.2681 5.15122 16.2785 5.28627 16.2785C5.42362 16.2785 5.58898 16.2681 5.71954 16.2681H5.73187V16.2799V16.3708H5.71954H5.68107C5.58072 16.3725 5.48905 16.3809 5.48853 16.5107V17.9003C5.48905 18.0299 5.58072 18.0377 5.68107 18.0401H5.73187V18.0516V18.1425H5.71954Z" fill="white"/>
<path d="M7.61665 17.6078L7.62219 17.6025V16.6082C7.62219 16.3905 7.46457 16.3587 7.38178 16.3587H7.32095V16.2791C7.45098 16.2791 7.57798 16.2896 7.70749 16.2896C7.82069 16.2896 7.93452 16.2791 8.0472 16.2791V16.3587H8.00623C7.88989 16.3587 7.76007 16.3799 7.76007 16.6955V17.9024C7.76007 17.9953 7.76278 18.0882 7.77637 18.1704H7.67143L6.24954 16.6476V17.7408C6.24954 17.9717 6.29616 18.051 6.50887 18.051H6.55591V18.1307C6.43717 18.1307 6.31853 18.1202 6.19979 18.1202C6.07582 18.1202 5.94861 18.1307 5.82422 18.1307V18.051H5.86289C6.05345 18.051 6.11136 17.9263 6.11136 17.7146V16.597C6.11136 16.4486 5.98404 16.3587 5.86028 16.3587H5.82422V16.2791C5.92896 16.2791 6.03683 16.2896 6.14146 16.2896C6.22456 16.2896 6.30473 16.2791 6.38752 16.2791L7.61665 17.6078Z" fill="white"/>
<path d="M7.60873 17.6028V17.6018L7.60653 17.6001L7.60873 17.6028ZM7.61532 17.6081L7.62399 17.6005L7.61532 17.6081ZM7.67009 18.1587H7.76144C7.74911 18.0789 7.74692 17.9908 7.74692 17.9026V16.6957C7.74692 16.3774 7.88583 16.3472 8.00478 16.347H8.03384V16.2906C7.92503 16.2914 7.81601 16.3011 7.70615 16.3011C7.57967 16.3011 7.45675 16.2914 7.33194 16.2906L7.33163 16.347H7.38044C7.46532 16.3472 7.63267 16.3835 7.63267 16.6084L7.62901 17.611L7.62357 17.6162L7.61417 17.6248L6.38607 16.2907C6.30402 16.2907 6.22416 16.3012 6.13991 16.3012C6.03873 16.3012 5.93504 16.2915 5.8349 16.2907L5.83438 16.3471H5.85894C5.98845 16.3473 6.12172 16.4423 6.12172 16.5976V17.7147C6.12172 17.927 6.06016 18.0625 5.86156 18.0633L5.8349 18.0625V18.1194C5.95448 18.1185 6.07772 18.1088 6.19834 18.1088C6.31353 18.1088 6.42851 18.1186 6.54245 18.1194V18.0632H6.50753C6.29022 18.0624 6.23639 17.9715 6.23618 17.7409V16.618L7.67009 18.1587ZM7.77493 18.1818L7.6612 18.1781L6.25981 16.6778V17.741C6.26315 17.9716 6.29963 18.0371 6.50753 18.0397H6.5667V18.0512V18.1421H6.55447C6.43499 18.1421 6.31615 18.1316 6.19834 18.1316C6.07469 18.1316 5.94779 18.1421 5.82267 18.1421H5.81055V18.1309V18.0397H5.82267H5.86156C6.04406 18.0387 6.09622 17.9261 6.09821 17.7148V16.5977C6.09768 16.4565 5.97706 16.3705 5.85894 16.3705H5.81055V16.3585V16.2678H5.82267C5.92824 16.2678 6.03633 16.2783 6.13991 16.2783C6.22228 16.2783 6.30203 16.2678 6.39517 16.272L7.60873 17.5842V16.6086C7.60737 16.3978 7.46082 16.3722 7.38044 16.3706H7.30738V16.3586V16.2679H7.31961C7.45006 16.2679 7.57716 16.2784 7.70615 16.2784C7.81852 16.2784 7.93172 16.2679 8.04586 16.2679H8.05799V16.2795V16.3706H8.04586H8.00478C7.89074 16.3734 7.77378 16.3831 7.77043 16.6959V17.9028C7.77043 17.9956 7.77346 18.0882 7.78674 18.1687L7.78925 18.182H7.77493V18.1818Z" fill="white"/>
<path d="M8.46081 16.4119C8.25343 16.4119 8.24548 16.4599 8.20398 16.6531H8.12109C8.13196 16.579 8.14576 16.5047 8.15433 16.4278C8.16541 16.3532 8.17085 16.2793 8.17085 16.2025H8.23712C8.25928 16.2822 8.32837 16.2793 8.40321 16.2793H9.8275C9.90245 16.2793 9.97133 16.2766 9.97708 16.197L10.0429 16.2079C10.0323 16.2793 10.021 16.3509 10.0129 16.4227C10.0076 16.4943 10.0076 16.5658 10.0076 16.6374L9.9245 16.6669C9.91886 16.5688 9.90527 16.412 9.72026 16.412H9.26734V17.8231C9.26734 18.0278 9.36403 18.0512 9.49636 18.0512H9.54904V18.1309C9.44138 18.1309 9.2479 18.1206 9.09905 18.1206C8.93317 18.1206 8.73969 18.1309 8.63192 18.1309V18.0512H8.6846C8.83679 18.0512 8.91373 18.0381 8.91373 17.8286V16.412H8.46081V16.4119Z" fill="white"/>
<path d="M9.54938 18.1425C9.44057 18.1425 9.2475 18.1321 9.09918 18.1321C8.9335 18.1321 8.74044 18.1425 8.63205 18.1425H8.62034V18.1313V18.0401H8.63205H8.68473C8.83692 18.0367 8.89807 18.0348 8.90162 17.8291V16.4238H8.46093V16.4125V16.4007H8.92556V17.8292C8.92556 18.0421 8.83619 18.0636 8.68473 18.0639H8.64386V18.1199C8.75277 18.1192 8.93883 18.1095 9.09918 18.1095C9.24301 18.1095 9.42739 18.1193 9.53683 18.1199V18.0639H9.49649C9.36301 18.0636 9.25545 18.0322 9.25545 17.8237V16.4007H9.72039C9.90561 16.4014 9.93007 16.5526 9.93592 16.6513L9.99561 16.6301C9.99561 16.5608 9.99592 16.4914 10.0009 16.4217C10.009 16.3532 10.019 16.2858 10.0295 16.2178L9.98745 16.2112C9.9746 16.2883 9.89683 16.2924 9.82753 16.2915H8.40334H8.38891C8.324 16.2916 8.25313 16.2886 8.22836 16.2145H8.18279C8.18226 16.2878 8.17704 16.359 8.16658 16.4297C8.15833 16.5026 8.14578 16.5725 8.13564 16.6428H8.1946C8.23097 16.4578 8.2546 16.3979 8.46093 16.4007V16.4125V16.4238C8.25648 16.4277 8.26087 16.4605 8.21582 16.6565L8.21383 16.6655H8.20411H8.10742L8.10899 16.6518C8.12017 16.5778 8.13418 16.5033 8.14223 16.4263C8.15373 16.3528 8.15906 16.2791 8.15906 16.2031V16.1913H8.17087H8.24665L8.24874 16.1996C8.26745 16.2665 8.31846 16.267 8.38891 16.2682H8.40334H9.82753C9.90446 16.267 9.96048 16.2661 9.96519 16.1966L9.96623 16.1841L9.97867 16.1865L10.0568 16.1983L10.0548 16.21C10.0438 16.2812 10.033 16.3527 10.0248 16.4237C10.0195 16.4947 10.0195 16.5661 10.0195 16.6378V16.6458L10.0115 16.6488L9.91387 16.6833L9.91313 16.6679C9.90561 16.5681 9.89484 16.4237 9.72039 16.4237H9.27949V17.8235C9.28231 18.0235 9.36489 18.0375 9.49649 18.04H9.56119V18.0515V18.1424H9.54938V18.1425Z" fill="white"/>
<path d="M10.1309 18.0511H10.1697C10.2689 18.0511 10.3741 18.038 10.3741 17.8999V16.5103C10.3741 16.372 10.2689 16.3589 10.1697 16.3589H10.1309V16.2792C10.2988 16.2792 10.5867 16.2897 10.8181 16.2897C11.0506 16.2897 11.3373 16.2792 11.5251 16.2792C11.5203 16.3932 11.523 16.5687 11.531 16.6852L11.4478 16.7063C11.4345 16.5338 11.4015 16.3962 11.1113 16.3962H10.7279V17.0907H11.0559C11.2216 17.0907 11.2578 17.0009 11.2741 16.8575H11.3569C11.3514 16.9611 11.3485 17.0645 11.3485 17.1679C11.3485 17.2689 11.3514 17.3696 11.3569 17.4702L11.2741 17.4861C11.2578 17.3272 11.2494 17.2238 11.0587 17.2238H10.7279V17.8414C10.7279 18.0141 10.8875 18.0141 11.0643 18.0141C11.3957 18.0141 11.542 17.9927 11.625 17.6907L11.702 17.709C11.6661 17.8499 11.6331 17.99 11.6085 18.1308C11.4315 18.1308 11.1139 18.1206 10.8659 18.1206C10.6168 18.1206 10.2885 18.1308 10.1309 18.1308V18.0511Z" fill="white"/>
<path d="M11.5979 18.1193C11.622 17.9852 11.6535 17.8513 11.6874 17.7177L11.633 17.7046C11.5503 18.0013 11.3901 18.0278 11.0642 18.0258C10.8901 18.0258 10.7162 18.0258 10.7153 17.8415V17.2122H11.0586C11.2515 17.2103 11.2709 17.3219 11.2847 17.4728L11.3443 17.4612C11.339 17.3633 11.3363 17.2652 11.3363 17.168C11.3363 17.0684 11.339 16.969 11.3443 16.8688H11.2847C11.2691 17.0074 11.2241 17.1041 11.0558 17.1024H10.7153V16.3844H11.1112C11.3984 16.3823 11.446 16.525 11.4586 16.6918L11.518 16.6763C11.5132 16.6015 11.51 16.5053 11.51 16.4167C11.51 16.3713 11.5112 16.3283 11.5128 16.2907C11.3252 16.2915 11.0451 16.3012 10.8181 16.3012C10.5912 16.3012 10.3119 16.2915 10.1429 16.2907V16.3471H10.1696C10.2679 16.3473 10.3854 16.3637 10.386 16.5104V17.9C10.3854 18.0464 10.2679 18.0625 10.1696 18.0633H10.1429V18.1193C10.3036 18.1188 10.6229 18.1089 10.8655 18.1089C11.1092 18.1089 11.4198 18.1188 11.5979 18.1193ZM11.6081 18.1422C11.431 18.1422 11.1132 18.1313 10.8655 18.1313C10.6167 18.1313 10.2885 18.1422 10.1307 18.1422H10.1191V18.131V18.0513V18.0398H10.1307H10.1696C10.2696 18.0382 10.3605 18.0298 10.3617 17.9001V16.5105C10.3605 16.3809 10.2696 16.3722 10.1696 16.3705H10.1191V16.359V16.2678H10.1307C10.2995 16.2678 10.5867 16.2783 10.8181 16.2783C11.0503 16.2783 11.337 16.2678 11.525 16.2678H11.5373L11.5368 16.2801C11.5351 16.3197 11.5339 16.3669 11.5339 16.4168C11.5339 16.5085 11.5368 16.609 11.5423 16.6845L11.5428 16.6939L11.5335 16.6966L11.4364 16.721L11.436 16.7073C11.4197 16.5352 11.3956 16.41 11.1112 16.4075H10.7391L10.7389 17.0792H11.0558C11.215 17.0776 11.2434 16.9995 11.2623 16.8564L11.2629 16.8458H11.2739H11.3691L11.3689 16.8579C11.3635 16.9615 11.3603 17.0647 11.3603 17.168C11.3603 17.2683 11.3635 17.369 11.3689 17.4698L11.3691 17.4795L11.359 17.4816L11.2629 17.5001L11.2623 17.4876C11.2431 17.3257 11.2419 17.2369 11.0586 17.235H10.7391V17.8415C10.7395 18.0027 10.8842 18.0019 11.0642 18.0027C11.3967 18.0008 11.5298 17.9851 11.613 17.6876L11.6159 17.6769L11.6275 17.6788L11.716 17.7009L11.7135 17.7117C11.6776 17.8521 11.6447 17.9924 11.6197 18.1327L11.6176 18.1421H11.6081V18.1422Z" fill="white"/>
<path d="M12.4295 17.1752H12.5645C12.841 17.1752 12.9898 17.0747 12.9898 16.7616C12.9898 16.5257 12.8324 16.3745 12.5863 16.3745C12.5034 16.3745 12.4681 16.3827 12.4295 16.3853V17.1752ZM12.0762 16.56C12.0762 16.3666 11.9656 16.3587 11.8799 16.3587H11.8301V16.2791C11.9185 16.2791 12.0897 16.2896 12.2583 16.2896C12.4237 16.2896 12.5564 16.2791 12.7028 16.2791C13.0502 16.2791 13.3601 16.3692 13.3601 16.746C13.3601 16.9846 13.1944 17.1303 12.9763 17.2129L13.4483 17.8916C13.5258 18.0038 13.5806 18.0353 13.7163 18.0509V18.1306C13.6249 18.1306 13.5366 18.1203 13.4458 18.1203C13.3601 18.1203 13.2714 18.1306 13.1862 18.1306C12.9734 17.8628 12.791 17.5764 12.6116 17.2709H12.4295V17.8389C12.4295 18.0431 12.5287 18.0509 12.6553 18.0509H12.7055V18.1306C12.5478 18.1306 12.3883 18.1203 12.2305 18.1203C12.098 18.1203 11.9682 18.1306 11.8301 18.1306V18.0509H11.8799C11.9825 18.0509 12.0762 18.006 12.0762 17.9079V16.56Z" fill="white"/>
<path d="M12.5629 17.1644C12.8363 17.1618 12.974 17.0706 12.9768 16.7626C12.9751 16.5308 12.8253 16.3871 12.5848 16.3861C12.5103 16.3861 12.475 16.3926 12.4398 16.396V17.1644H12.5629ZM12.4279 17.1869H12.4157V16.3747L12.4262 16.3739C12.4641 16.371 12.5013 16.3637 12.5848 16.3637C12.8363 16.3637 13.0001 16.5206 13.0003 16.7626C12.9996 17.0792 12.8415 17.1869 12.5629 17.187H12.4279V17.1869ZM12.4279 17.2597H12.6166L12.62 17.2657C12.7998 17.5704 12.9813 17.8569 13.1846 18.1195C13.2686 18.1195 13.3573 18.1089 13.4434 18.1089C13.5315 18.1089 13.6168 18.1182 13.7025 18.1193V18.0611C13.5731 18.0459 13.5123 18.0084 13.4369 17.8985L12.9562 17.208L12.9698 17.2027C13.186 17.1208 13.3463 16.9791 13.3464 16.7459C13.3463 16.378 13.0483 16.2925 12.7011 16.2908C12.5557 16.2908 12.423 16.3015 12.2567 16.3015C12.0944 16.3015 11.9305 16.2915 11.8402 16.2908V16.3472H11.8783C11.964 16.3474 12.086 16.3612 12.086 16.5603V17.9083C12.086 18.0148 11.9822 18.0631 11.8783 18.0634H11.8402V18.1194C11.973 18.1189 12.099 18.109 12.2288 18.109C12.3829 18.109 12.5389 18.119 12.6916 18.1194V18.0634H12.6538C12.528 18.0631 12.4157 18.0483 12.4157 17.8388V17.2598H12.4279V17.2597ZM13.7146 18.1421C13.622 18.1421 13.5342 18.1316 13.4434 18.1316C13.3592 18.1316 13.2709 18.1421 13.1747 18.1378C12.9629 17.8707 12.7813 17.586 12.603 17.2832H12.4398V17.8387C12.4428 18.0384 12.5261 18.0369 12.6538 18.0397H12.7158V18.0512V18.1421H12.7035C12.5457 18.1421 12.3852 18.1316 12.2288 18.1316C12.0969 18.1316 11.9671 18.1421 11.8284 18.1421H11.8164V18.1309V18.0397H11.8284H11.8783C11.9776 18.039 12.0615 17.9974 12.0619 17.9083V16.5603C12.0599 16.3722 11.964 16.3732 11.8783 16.3705H11.8164V16.3591V16.2678H11.8284C11.9178 16.2678 12.0883 16.2783 12.2567 16.2783C12.4215 16.2783 12.554 16.2678 12.7011 16.2678C13.0493 16.2686 13.3697 16.3607 13.3705 16.746C13.3705 16.9854 13.2058 17.135 12.9929 17.2184L13.4565 17.8857C13.5338 17.9957 13.5819 18.0233 13.7162 18.0398L13.7262 18.0413V18.0514V18.1423H13.7146V18.1421Z" fill="white"/>
<path d="M15.5911 17.6078L15.5959 17.6025V16.6082C15.5959 16.3905 15.439 16.3587 15.3561 16.3587H15.2956V16.2791C15.4254 16.2791 15.552 16.2896 15.6821 16.2896C15.7956 16.2896 15.908 16.2791 16.022 16.2791V16.3587H15.9804C15.8644 16.3587 15.7347 16.3799 15.7347 16.6955V17.9024C15.7347 17.9953 15.7374 18.0882 15.751 18.1704H15.6465L14.2245 16.6476V17.7408C14.2245 17.9717 14.2711 18.051 14.4837 18.051H14.5307V18.1307C14.4121 18.1307 14.2931 18.1202 14.1745 18.1202C14.0498 18.1202 13.923 18.1307 13.7988 18.1307V18.051H13.8372C14.0278 18.051 14.0862 17.9263 14.0862 17.7146V16.597C14.0862 16.4486 13.959 16.3587 13.8348 16.3587H13.7988V16.2791C13.9034 16.2791 14.0119 16.2896 14.1166 16.2896C14.1986 16.2896 14.2791 16.2791 14.3621 16.2791L15.5911 17.6078Z" fill="white"/>
<path d="M15.5849 17.6028V17.6021L15.5829 17.6001L15.5849 17.6028ZM15.5915 17.6081L15.6004 17.6005L15.5915 17.6081ZM15.6472 18.1587H15.7376C15.7256 18.0794 15.7231 17.9908 15.7231 17.9026V16.6957C15.7233 16.3774 15.8629 16.3478 15.9811 16.347H16.0102V16.2906C15.9015 16.2914 15.7924 16.3011 15.6828 16.3011C15.5559 16.3011 15.4329 16.2914 15.308 16.2906V16.347H15.3568C15.4419 16.3478 15.6091 16.3835 15.6091 16.6084L15.6052 17.611L15.6001 17.6162L15.5915 17.625L14.3628 16.2907C14.2807 16.2907 14.2006 16.3012 14.1172 16.3012C14.0148 16.3012 13.9116 16.2915 13.8113 16.2907V16.3471H13.8355C13.9654 16.3479 14.0983 16.4419 14.0983 16.5972V17.7141C14.0983 17.927 14.0359 18.0625 13.8379 18.0632L13.8113 18.0629V18.1193C13.9305 18.1185 14.0535 18.1088 14.1747 18.1088C14.2905 18.1088 14.4053 18.1186 14.5194 18.1193V18.0632H14.4844C14.2671 18.0629 14.213 17.9718 14.2123 17.7407V16.6184L15.6472 18.1587ZM15.7517 18.1818L15.6382 18.1781L14.2366 16.678V17.7408C14.2398 17.9719 14.2762 18.0371 14.4844 18.0397H14.5429V18.0512V18.1421H14.5309C14.4116 18.1421 14.293 18.1312 14.1747 18.1312C14.0515 18.1312 13.9238 18.1421 13.7994 18.1421H13.7871V18.1309V18.0397H13.7994H13.8379C14.0203 18.039 14.0726 17.9261 14.0744 17.7142V16.5973C14.074 16.456 13.9536 16.3705 13.8355 16.3705H13.7871V16.359V16.2678H13.7994C13.9049 16.2678 14.013 16.2783 14.1172 16.2783C14.1983 16.2783 14.2783 16.2678 14.371 16.2713L15.5849 17.5842V16.6086C15.5841 16.3978 15.4371 16.3718 15.3568 16.3706H15.2839V16.3591V16.2679H15.296C15.4264 16.2679 15.5537 16.2784 15.6828 16.2784C15.7953 16.2784 15.9084 16.2679 16.0222 16.2679H16.0344V16.2798V16.3706H16.0222H15.9811C15.8672 16.3732 15.7498 16.3831 15.7471 16.6959V17.9028C15.7471 17.9956 15.7495 18.0876 15.7636 18.1689L15.765 18.182H15.7517V18.1818Z" fill="white"/>
<path d="M16.8668 16.5768H16.8611L16.6045 17.3275H17.1204L16.8668 16.5768ZM16.4637 17.7519C16.4359 17.8418 16.4025 17.9114 16.4025 17.9585C16.4025 18.0384 16.5188 18.0516 16.6097 18.0516H16.6405V18.1312C16.5296 18.1254 16.4169 18.121 16.3058 18.121C16.2064 18.121 16.1075 18.1255 16.0078 18.1312V18.0516H16.0246C16.1321 18.0516 16.2236 17.9905 16.2645 17.8789L16.7064 16.6618C16.7424 16.5635 16.7922 16.4309 16.809 16.3326C16.8968 16.3036 17.0078 16.2509 17.0601 16.2186C17.0687 16.2159 17.0738 16.2131 17.0821 16.2131C17.0905 16.2131 17.0956 16.2131 17.1017 16.2215C17.1098 16.2425 17.1179 16.2663 17.1265 16.2875L17.6348 17.675C17.6678 17.7676 17.7007 17.8656 17.7361 17.9456C17.7697 18.02 17.8277 18.0515 17.9192 18.0515H17.9357V18.1311C17.8113 18.1253 17.6867 18.1209 17.5547 18.1209C17.4193 18.1209 17.2808 18.1254 17.1401 18.1311V18.0515H17.1705C17.2336 18.0515 17.342 18.041 17.342 17.9745C17.342 17.9403 17.3171 17.8686 17.2863 17.7834L17.1787 17.4758H16.5519L16.4637 17.7519Z" fill="white"/>
<path d="M16.8571 16.5804L16.8634 16.5784L16.8571 16.5804ZM16.6229 17.3159H17.1065L16.8661 16.6052L16.6229 17.3159ZM16.59 17.3391L16.8542 16.5652H16.8634H16.8691V16.577L16.8662 16.5778L16.8691 16.577V16.5652H16.8774L17.1398 17.3391H16.59ZM17.1544 18.1191C17.291 18.1145 17.4252 18.1093 17.5571 18.1093C17.6852 18.1093 17.8055 18.1145 17.9255 18.1191V18.0635H17.9215C17.8267 18.0642 17.7616 18.0284 17.7277 17.9502C17.6917 17.87 17.6581 17.7716 17.6255 17.6787L17.1171 16.2914C17.1088 16.2702 17.1009 16.2465 17.0937 16.2277C17.091 16.225 17.0915 16.225 17.0894 16.225H17.0842C17.0785 16.225 17.0753 16.2267 17.0682 16.2284C17.0151 16.2615 16.9044 16.3138 16.8222 16.3345C16.8054 16.435 16.7556 16.5675 16.7197 16.6658L16.278 17.883C16.2358 17.9983 16.1388 18.0639 16.0267 18.0636H16.0221V18.1192C16.1169 18.1146 16.2124 18.1094 16.3083 18.1094C16.4151 18.1094 16.524 18.1146 16.6296 18.1192V18.0636H16.6118C16.5217 18.0624 16.3961 18.0531 16.3928 17.959C16.3931 17.9065 16.4269 17.8386 16.454 17.7489L16.4658 17.7522L16.454 17.7485L16.5449 17.4651H17.1889L17.2995 17.7802C17.3306 17.8655 17.3556 17.9362 17.3556 17.9749C17.3516 18.0561 17.2353 18.0621 17.1727 18.0636H17.1543V18.1191H17.1544ZM17.937 18.1426C17.813 18.1375 17.6885 18.1317 17.557 18.1317C17.4216 18.1317 17.2839 18.1376 17.1429 18.1426L17.1302 18.1433V18.1314V18.0397H17.1423H17.1727C17.2367 18.0397 17.3316 18.0259 17.3317 17.9749C17.3324 17.9446 17.3077 17.872 17.2772 17.7876L17.1721 17.4876H16.5629L16.477 17.7557C16.4492 17.8457 16.4157 17.9159 16.4162 17.959C16.4171 18.0238 16.5203 18.0398 16.6118 18.0398H16.6543V18.0519V18.1434L16.6418 18.1427C16.5313 18.1376 16.4187 18.1318 16.3083 18.1318C16.2096 18.1318 16.1098 18.1377 16.0109 18.1427L15.998 18.1434V18.1315V18.0398H16.01H16.0267C16.1293 18.0396 16.2151 17.9832 16.255 17.8756L16.6972 16.658C16.733 16.5598 16.7832 16.4279 16.8069 16.3218C16.8935 16.2936 17.0046 16.2402 17.0577 16.2081C17.0654 16.2055 17.073 16.202 17.0842 16.202C17.0909 16.2016 17.1058 16.2034 17.1148 16.2171C17.1225 16.2389 17.1313 16.2627 17.1397 16.2841L17.6481 17.6713C17.6807 17.7642 17.7137 17.8621 17.7498 17.9408C17.7819 18.0115 17.8325 18.0394 17.9213 18.0396H17.9493V18.0517V18.1432L17.937 18.1426Z" fill="white"/>
<path d="M18.0589 16.412C17.8518 16.412 17.8433 16.46 17.8018 16.6533H17.7188C17.7296 16.5791 17.7437 16.5048 17.7523 16.428C17.7632 16.3534 17.7684 16.2794 17.7684 16.2027H17.8352C17.8568 16.2823 17.926 16.2794 18.0006 16.2794H19.4257C19.4999 16.2794 19.5689 16.2768 19.5744 16.1971L19.6405 16.208C19.6301 16.2794 19.6193 16.3511 19.6106 16.4228C19.6044 16.4944 19.6044 16.5659 19.6044 16.6375L19.522 16.667C19.517 16.5689 19.5031 16.4121 19.3178 16.4121H18.865V17.8233C18.865 18.0279 18.9618 18.0513 19.094 18.0513H19.1468V18.131C19.039 18.131 18.846 18.1208 18.6965 18.1208C18.5311 18.1208 18.3373 18.131 18.2297 18.131V18.0513H18.2823C18.4344 18.0513 18.5114 18.0382 18.5114 17.8287V16.4121H18.0589V16.412Z" fill="white"/>
<path d="M19.1472 18.1425C19.0387 18.1425 18.8452 18.1321 18.6968 18.1321C18.5319 18.1321 18.3385 18.1425 18.2303 18.1425H18.2181V18.1313V18.0401H18.2303H18.2828C18.4351 18.0367 18.4961 18.0348 18.4998 17.8291L18.4996 16.4238H18.0593V16.4125V16.4007H18.5238V17.8292C18.5238 18.0421 18.4345 18.0631 18.2827 18.0636H18.2419V18.12C18.3512 18.1191 18.5366 18.1094 18.6967 18.1094C18.8411 18.1094 19.0258 18.1192 19.1349 18.12V18.0636H19.0942C18.9613 18.0631 18.8536 18.0324 18.8534 17.8237V16.4007H19.318C19.5035 16.4014 19.5277 16.5526 19.5331 16.6513L19.5931 16.6301C19.5931 16.5608 19.5935 16.4914 19.5991 16.422C19.6065 16.3537 19.617 16.2858 19.6271 16.2181L19.5854 16.2112C19.5728 16.2883 19.4948 16.2926 19.4261 16.2915H18.001H17.9869C17.9218 16.2922 17.8513 16.2886 17.8262 16.2143H17.7811C17.7804 16.2877 17.7749 16.359 17.7641 16.4297C17.7566 16.5029 17.7433 16.573 17.7328 16.6428H17.792C17.8284 16.4578 17.8523 16.3977 18.0592 16.4007V16.4125V16.4238C17.8544 16.4272 17.8589 16.4605 17.8138 16.6565L17.8118 16.6655H17.8021H17.7051L17.7069 16.6524C17.7184 16.5778 17.7319 16.5034 17.74 16.4269C17.7513 16.3528 17.7564 16.2791 17.7564 16.2031V16.1913H17.7686H17.8441L17.8464 16.1996C17.8657 16.2665 17.916 16.267 17.9867 16.2682H18.0008H19.4259C19.5023 16.267 19.5581 16.2661 19.5631 16.1968L19.5635 16.1841L19.5763 16.1865L19.6547 16.1983L19.6527 16.21C19.6414 16.2812 19.6309 16.3527 19.6226 16.4237C19.6169 16.4947 19.6169 16.5662 19.6169 16.6378V16.6458L19.6088 16.6488L19.5111 16.6833L19.5107 16.6679C19.5035 16.5681 19.4925 16.4237 19.3179 16.4237H18.8769V17.8235C18.8798 18.0235 18.9624 18.0375 19.094 18.04H19.1584V18.0515V18.1424H19.1472V18.1425Z" fill="white"/>
<path d="M19.7423 18.0511H19.781C19.8805 18.0511 19.985 18.038 19.985 17.8999V16.5103C19.985 16.372 19.8805 16.3589 19.781 16.3589H19.7423V16.2792C19.8501 16.2792 20.0154 16.2897 20.1506 16.2897C20.289 16.2897 20.4547 16.2792 20.5848 16.2792V16.3589H20.546C20.4462 16.3589 20.3412 16.372 20.3412 16.5103V17.8999C20.3412 18.038 20.4462 18.0511 20.546 18.0511H20.5848V18.1308C20.452 18.1308 20.2861 18.1206 20.1483 18.1206C20.0127 18.1206 19.85 18.1308 19.7422 18.1308V18.0511H19.7423Z" fill="white"/>
<path d="M20.5723 18.1193V18.063H20.5462C20.4471 18.063 20.3299 18.0464 20.3299 17.9V16.5104C20.3299 16.3637 20.4471 16.3473 20.5462 16.3471H20.5723V16.2907C20.4449 16.2915 20.2851 16.3012 20.1507 16.3012C20.0196 16.3012 19.8614 16.2915 19.7544 16.2907V16.3471H19.7812C19.8793 16.3473 19.9969 16.3637 19.9972 16.5104V17.9C19.9969 18.0464 19.8792 18.063 19.7812 18.063H19.7544V18.1193C19.8608 18.1181 20.017 18.1089 20.1485 18.1089C20.2823 18.1089 20.442 18.1187 20.5723 18.1193ZM20.5849 18.1422C20.4514 18.1422 20.2862 18.1313 20.1484 18.1313C20.0132 18.1313 19.8502 18.1422 19.7423 18.1422H19.7305V18.131V18.0513V18.0398H19.7423H19.7811C19.8806 18.0382 19.9723 18.0298 19.973 17.9001V16.5105C19.9723 16.3809 19.8806 16.3722 19.7811 16.3705H19.7305V16.359V16.2678H19.7423C19.8502 16.2678 20.0162 16.2783 20.1506 16.2783C20.2882 16.2783 20.4539 16.2678 20.5848 16.2678H20.5962V16.2794V16.3705H20.5848H20.5461C20.4449 16.3722 20.3542 16.3809 20.3531 16.5105V17.9001C20.3542 18.0298 20.4449 18.0382 20.5461 18.0398H20.5962V18.0513V18.1422H20.5849Z" fill="white"/>
<path d="M21.7282 18.0538C22.2641 18.0538 22.3574 17.6 22.3574 17.2131C22.3574 16.8256 22.1398 16.3562 21.6812 16.3562C21.198 16.3562 21.0543 16.77 21.0543 17.1252C21.0544 17.5999 21.281 18.0538 21.7282 18.0538ZM21.6865 16.2395C22.2753 16.2395 22.7444 16.5899 22.7444 17.1549C22.7444 17.765 22.2888 18.1705 21.7008 18.1705C21.115 18.1705 20.668 17.7885 20.668 17.2182C20.668 16.6668 21.1124 16.2395 21.6865 16.2395Z" fill="white"/>
<path d="M21.0409 17.1256C21.0419 16.7687 21.1868 16.3449 21.6798 16.3449C22.1487 16.3459 22.3674 16.8238 22.3683 17.2135C22.3674 17.6004 22.2727 18.0651 21.727 18.0651V18.0542V18.0427C22.252 18.0422 22.3433 17.6004 22.3441 17.2135C22.3441 16.8293 22.1285 16.3689 21.6798 16.3682C21.2061 16.3687 21.0661 16.7723 21.0649 17.1256C21.0651 17.5981 21.2896 18.0419 21.727 18.0427V18.0542V18.0651C21.2687 18.0647 21.0419 17.6031 21.0409 17.1256ZM20.6543 17.2187C20.6554 16.6607 21.105 16.2293 21.685 16.2284V16.2399V16.2515C21.1174 16.2515 20.6782 16.673 20.6776 17.2187C20.6788 17.7825 21.1194 18.1588 21.6995 18.159C22.2814 18.1588 22.7305 17.7592 22.7314 17.1549C22.7308 16.597 22.2689 16.252 21.6849 16.2515V16.2399V16.2284C22.2779 16.229 22.7538 16.5829 22.7548 17.155C22.7541 17.7716 22.293 18.1813 21.6994 18.1823C21.1088 18.1812 20.6553 17.7953 20.6543 17.2187Z" fill="white"/>
<path d="M24.6048 17.6078L24.6106 17.6025V16.6082C24.6106 16.3905 24.4526 16.3587 24.3699 16.3587H24.3098V16.2791C24.4392 16.2791 24.5665 16.2896 24.6958 16.2896C24.8094 16.2896 24.9225 16.2791 25.0359 16.2791V16.3587H24.9944C24.8787 16.3587 24.7483 16.3799 24.7483 16.6955V17.9024C24.7483 17.9953 24.7512 18.0882 24.7652 18.1704H24.6601L23.2378 16.6476V17.7408C23.2378 17.9717 23.2849 18.051 23.497 18.051H23.5444V18.1307C23.4256 18.1307 23.3071 18.1202 23.1883 18.1202C23.064 18.1202 22.9369 18.1307 22.8125 18.1307V18.051H22.8513C23.0421 18.051 23.0997 17.9263 23.0997 17.7146V16.597C23.0997 16.4486 22.9732 16.3587 22.8482 16.3587H22.8125V16.2791C22.9174 16.2791 23.025 16.2896 23.1302 16.2896C23.2128 16.2896 23.2925 16.2791 23.3757 16.2791L24.6048 17.6078Z" fill="white"/>
<path d="M24.5982 17.6029V17.6022L24.5961 17.6002L24.5982 17.6029ZM24.6047 17.6082L24.6135 17.6006L24.6047 17.6082ZM24.66 18.1588H24.7505C24.7388 18.079 24.7361 17.9909 24.7361 17.9027V16.6958C24.7361 16.3769 24.8755 16.3479 24.9941 16.3471H25.024V16.2907C24.9143 16.2915 24.8057 16.3012 24.6952 16.3012C24.5695 16.3012 24.446 16.2915 24.321 16.2907V16.3471H24.3696C24.4548 16.3479 24.6215 16.3841 24.6215 16.6085L24.6187 17.6111L24.6134 17.6163L24.6046 17.6251L23.3756 16.2908C23.2939 16.2908 23.2135 16.3013 23.1298 16.3013C23.028 16.3013 22.9243 16.2916 22.8239 16.2908V16.3472H22.848C22.9779 16.348 23.1113 16.442 23.1113 16.5973V17.7148C23.1113 17.9271 23.0497 18.0626 22.851 18.0634L22.8239 18.0631V18.1195C22.9437 18.1187 23.0666 18.109 23.1879 18.109C23.3032 18.109 23.4176 18.1188 23.5321 18.1195V18.0634H23.4964C23.2797 18.0631 23.2254 17.972 23.2254 17.7411V16.6182L24.66 18.1588ZM24.7652 18.1819L24.6509 18.1782L23.2495 16.6781V17.7411C23.2528 17.972 23.2893 18.0369 23.4966 18.0393H23.5561V18.0514V18.1422H23.5444C23.4249 18.1422 23.3063 18.1317 23.1882 18.1317C23.0644 18.1317 22.9374 18.1422 22.8121 18.1422H22.8008V18.131V18.0393H22.8121H22.8511C23.033 18.0388 23.0855 17.9262 23.0877 17.7148V16.5973C23.0876 16.456 22.967 16.3705 22.8482 16.3705H22.8008V16.359V16.2678H22.8121C22.918 16.2678 23.0256 16.2783 23.1299 16.2783C23.2119 16.2783 23.2912 16.2678 23.3848 16.272L24.5981 17.5842V16.6086C24.5972 16.3978 24.4501 16.3722 24.3696 16.3706H24.2969V16.3591V16.2679H24.3095C24.4392 16.2679 24.5667 16.2784 24.6952 16.2784C24.8082 16.2784 24.9209 16.2679 25.0358 16.2679H25.0473V16.2795V16.3706H25.0358H24.9941C24.8802 16.3734 24.7628 16.3835 24.7605 16.6959V17.9028C24.7605 17.9956 24.7627 18.0882 24.776 18.1689L24.7783 18.182H24.7652V18.1819Z" fill="white"/>
<path d="M25.884 16.5768H25.8784L25.621 17.3275H26.1381L25.884 16.5768ZM25.4802 17.7519C25.4531 17.8418 25.4198 17.9114 25.4198 17.9585C25.4198 18.0384 25.5361 18.0516 25.6267 18.0516H25.6576V18.1312C25.547 18.1254 25.4337 18.121 25.3231 18.121C25.2237 18.121 25.1245 18.1255 25.0254 18.1312V18.0516H25.0411C25.1493 18.0516 25.2407 17.9905 25.2812 17.8789L25.7238 16.6618C25.7595 16.5635 25.8095 16.4309 25.8254 16.3326C25.9142 16.3036 26.0243 16.2509 26.0776 16.2186C26.0852 16.2159 26.0908 16.2131 26.0994 16.2131C26.1074 16.2131 26.1127 16.2131 26.1183 16.2215C26.1267 16.2425 26.1349 16.2663 26.1433 16.2875L26.6513 17.675C26.6842 17.7676 26.7176 17.8656 26.7538 17.9456C26.7868 18.02 26.8448 18.0515 26.9358 18.0515H26.9528V18.1311C26.8284 18.1253 26.7039 18.1209 26.5714 18.1209C26.4363 18.1209 26.298 18.1254 26.157 18.1311V18.0515H26.1876C26.2507 18.0515 26.3591 18.041 26.3591 17.9745C26.3591 17.9403 26.3343 17.8686 26.3034 17.7834L26.1959 17.4758H25.5691L25.4802 17.7519Z" fill="white"/>
<path d="M25.8709 16.5802L25.8765 16.5782L25.8709 16.5802ZM25.6364 17.3158H26.1194L25.8792 16.6054L25.6364 17.3158ZM25.6029 17.3389L25.8681 16.5651H25.8764H25.8824V16.5768L25.8793 16.5776L25.8824 16.5768V16.5651H25.8908L26.1519 17.3389H25.6029ZM26.1672 18.1191C26.3039 18.1143 26.4382 18.1091 26.5698 18.1091C26.6982 18.1091 26.8183 18.1143 26.9388 18.1189L26.9385 18.0633H26.9338C26.8402 18.0636 26.7751 18.0281 26.7406 17.9499C26.7042 17.8698 26.6714 17.7714 26.6383 17.6788L26.1302 16.2912C26.122 16.27 26.1132 16.2463 26.1067 16.2279C26.1044 16.2248 26.1046 16.2248 26.103 16.2248H26.0975C26.0915 16.2248 26.0885 16.2266 26.082 16.2284C26.0279 16.2609 25.9175 16.314 25.8359 16.3343C25.8188 16.4348 25.7686 16.5671 25.7332 16.6656L25.2909 17.8828C25.249 17.998 25.1524 18.0637 25.0395 18.0634H25.0354V18.119C25.1305 18.1144 25.2254 18.1092 25.3214 18.1092C25.4284 18.1092 25.5376 18.1144 25.6437 18.119V18.0634H25.625C25.5352 18.0622 25.4093 18.053 25.4058 17.9586C25.4065 17.9063 25.4405 17.8386 25.4676 17.7486L25.4785 17.7519L25.4676 17.7483L25.5584 17.4649H26.202L26.3129 17.7799C26.3433 17.8653 26.3685 17.936 26.3685 17.9746C26.3645 18.0559 26.2484 18.0619 26.1857 18.0634H26.167V18.1191H26.1672ZM26.95 18.1425C26.8255 18.1378 26.7015 18.132 26.5698 18.132C26.4351 18.132 26.2967 18.1379 26.156 18.1425L26.1438 18.1432V18.1313V18.0401H26.1556H26.1858C26.2498 18.0401 26.345 18.0257 26.3451 17.9747C26.3459 17.9445 26.3209 17.8722 26.2899 17.7875L26.1851 17.4875H25.5755L25.4902 17.7556C25.4624 17.8464 25.4298 17.9158 25.4301 17.9587C25.4301 18.0236 25.5337 18.0401 25.625 18.0401H25.6672V18.0515V18.1432L25.6548 18.1425C25.5445 18.1378 25.4314 18.132 25.3214 18.132C25.2226 18.132 25.1235 18.1379 25.0237 18.1425L25.0117 18.1432V18.1313V18.0401H25.0237H25.0394C25.1423 18.0396 25.2285 17.983 25.2689 17.8753L25.7106 16.6578C25.746 16.5596 25.7958 16.4276 25.8201 16.322C25.9069 16.2931 26.0178 16.24 26.0714 16.2079C26.0785 16.2052 26.0864 16.202 26.0977 16.202C26.1047 16.2013 26.1192 16.2031 26.1277 16.2175C26.136 16.2384 26.1442 16.2625 26.1532 16.2839L26.661 17.6711C26.6941 17.764 26.7271 17.8619 26.763 17.941C26.7956 18.0112 26.8454 18.0392 26.9338 18.0398H26.9623V18.0512V18.1429L26.95 18.1425Z" fill="white"/>
<path d="M27.6484 17.8705C27.6484 17.9772 27.7251 18.0086 27.8138 18.0196C27.9268 18.0276 28.0512 18.0276 28.1786 18.014C28.2943 18.0006 28.3938 17.9373 28.4433 17.8704C28.4872 17.8123 28.5121 17.738 28.5289 17.6798H28.6089C28.5785 17.831 28.5399 17.9797 28.5067 18.1307C28.2643 18.1307 28.0205 18.1204 27.7778 18.1204C27.5346 18.1204 27.2917 18.1307 27.0488 18.1307V18.051H27.087C27.1866 18.051 27.2947 18.0379 27.2947 17.8733V16.5102C27.2947 16.3719 27.1866 16.3587 27.087 16.3587H27.0488V16.2791C27.1949 16.2791 27.3387 16.2896 27.4849 16.2896C27.626 16.2896 27.7638 16.2791 27.9049 16.2791V16.3587H27.8355C27.7306 16.3587 27.6482 16.3615 27.6482 16.502V17.8705H27.6484Z" fill="white"/>
<path d="M28.4951 18.1192C28.5271 17.9751 28.5631 17.8343 28.5929 17.6912H28.536C28.519 17.7489 28.4944 17.82 28.4511 17.8778C28.3994 17.9465 28.2972 18.0113 28.1774 18.0257C28.1052 18.0326 28.0334 18.0362 27.9658 18.0362C27.9122 18.0362 27.8606 18.034 27.8104 18.0305C27.7206 18.0209 27.6338 17.984 27.6338 17.8704V16.5021C27.6338 16.3546 27.731 16.3469 27.834 16.3469H27.8908V16.2905C27.7548 16.2913 27.6205 16.3012 27.4832 16.3012C27.3405 16.3012 27.2005 16.2912 27.0591 16.2905V16.3469H27.0854C27.1839 16.3469 27.3045 16.3635 27.3045 16.5097V17.8734C27.3045 18.045 27.1845 18.0628 27.0854 18.0628H27.0591V18.1191C27.2976 18.1186 27.5364 18.1087 27.7762 18.1087C28.0164 18.1088 28.256 18.1187 28.4951 18.1192ZM28.5052 18.1421C28.2617 18.1421 28.0185 18.1316 27.7763 18.1316C27.5333 18.1316 27.2903 18.1421 27.0467 18.1421H27.0352V18.1309V18.0397H27.0467H27.0854C27.1853 18.0374 27.2801 18.0307 27.2812 17.8737V16.51C27.2801 16.3809 27.1857 16.3722 27.0854 16.3705H27.0352V16.359V16.2678H27.0467C27.1937 16.2678 27.3375 16.2783 27.4832 16.2783C27.6238 16.2783 27.7612 16.2678 27.9035 16.2678H27.9146V16.2794V16.3705H27.9035H27.8341C27.727 16.3731 27.6604 16.3685 27.658 16.5023V17.8706C27.6588 17.9698 27.7263 17.9964 27.8126 18.0082C27.8612 18.0114 27.9127 18.0132 27.9658 18.0132C28.0333 18.0132 28.1034 18.0102 28.1748 18.0029C28.2873 17.99 28.3841 17.9276 28.4318 17.8643C28.4745 17.8076 28.4986 17.7349 28.5154 17.6772L28.5176 17.6684H28.527H28.6217L28.6193 17.6824C28.588 17.8341 28.5501 17.982 28.5166 18.1332L28.5144 18.1421H28.5052Z" fill="white"/>
<path d="M28.5274 16.4843H28.5617C28.5992 16.4843 28.6165 16.4571 28.6165 16.413C28.6165 16.3686 28.5898 16.3528 28.5598 16.3528H28.5273V16.4843H28.5274ZM28.4294 16.6316V16.618C28.465 16.6131 28.4716 16.614 28.4716 16.5931V16.3861C28.4716 16.357 28.4686 16.3468 28.4305 16.3485V16.3342H28.5793C28.6304 16.3342 28.6777 16.3577 28.6777 16.4085C28.6777 16.4499 28.6492 16.4808 28.6089 16.4927L28.6568 16.5568C28.679 16.5857 28.7045 16.6131 28.7208 16.6226V16.6315H28.6642C28.6369 16.6315 28.613 16.5766 28.5597 16.5031H28.5274V16.5957C28.5274 16.614 28.5341 16.6131 28.5698 16.618V16.6316H28.4294ZM28.5739 16.7109C28.7043 16.7109 28.804 16.6045 28.804 16.4843C28.804 16.364 28.7055 16.2567 28.5739 16.2567C28.443 16.2567 28.3435 16.3639 28.3435 16.4843C28.3435 16.6045 28.443 16.7109 28.5739 16.7109ZM28.5739 16.2043C28.7405 16.2043 28.8648 16.3272 28.8648 16.4843C28.8648 16.6412 28.7404 16.7628 28.5739 16.7628C28.4077 16.7628 28.2832 16.6412 28.2832 16.4843C28.2832 16.3272 28.4077 16.2043 28.5739 16.2043Z" fill="white"/>
<path d="M16.0072 11.4879C13.3269 11.5002 11.1211 9.4145 11.1211 6.87563C11.1211 4.10082 13.3269 2.18163 16.0072 2.18213H17.2632C19.9117 2.18163 22.3289 4.10001 22.3289 6.87553C22.3289 9.4135 19.9117 11.4878 17.2632 11.4878H16.0072V11.4879ZM16.018 2.56697C13.5688 2.56787 11.5844 4.47431 11.5839 6.82694C11.5844 9.17936 13.5687 11.0854 16.018 11.0859C18.4673 11.0854 20.452 9.17936 20.4527 6.82694C20.4521 4.47431 18.4673 2.56787 16.018 2.56697ZM15.0113 9.34593V4.30734C13.9573 4.69721 13.2099 5.67693 13.2071 6.82694C13.2099 7.97674 13.9573 8.95647 15.0113 9.34593ZM18.829 6.82694C18.8272 5.67663 18.0785 4.6955 17.0238 4.30684V9.34683C18.0786 8.95777 18.8273 7.97765 18.829 6.82694Z" fill="white"/>
</g>
<defs>
<clipPath id="clip0_3112_692">
<rect x="0.5" width="32" height="20.3636" rx="2" fill="white"/>
</clipPath>
</defs>
</svg>
