<svg width="33" height="21" viewBox="0 0 33 21" fill="none" xmlns="http://www.w3.org/2000/svg">
<g clip-path="url(#clip0_3112_738)">
<rect x="0.960881" y="0.460881" width="31.0782" height="19.4419" fill="#0D0C0C" stroke="#0D0C0C" stroke-width="0.921762"/>
<path d="M7.99335 7.90736C8.27116 7.81478 8.56815 7.76496 8.87729 7.76496C10.2257 7.76496 11.3514 8.72046 11.6092 9.99064L13.5206 9.60169C13.0819 7.44325 11.17 5.81885 8.87728 5.81885C8.35193 5.81885 7.84726 5.90424 7.375 6.06162L7.99335 7.90736Z" fill="white"/>
<path d="M5.73594 14.0875L7.02846 12.6294C6.45146 12.1194 6.0875 11.3751 6.0875 10.5459C6.0875 9.71734 6.45103 8.97343 7.02766 8.46398L5.73484 7.00586C4.75505 7.87197 4.13672 9.13714 4.13672 10.5459C4.13672 11.9557 4.7553 13.2212 5.73594 14.0875Z" fill="white"/>
<path d="M11.6064 11.1041C11.3475 12.3735 10.2229 13.3272 8.87502 13.3272C8.56563 13.3272 8.26787 13.2776 7.99022 13.1844L7.37109 15.0308C7.84335 15.1881 8.34905 15.2732 8.87502 15.2732C11.1656 15.2732 13.0771 13.6515 13.5175 11.495L11.6064 11.1041Z" fill="white"/>
<path d="M15.1901 12.6906C15.1275 12.5894 15.0424 12.4274 14.9911 12.3083C14.6884 11.6073 14.6739 10.8817 14.9296 10.1852C15.2106 9.42142 15.7475 8.83659 16.4411 8.53888C17.3132 8.16441 18.2776 8.23823 19.1135 8.73305C19.6445 9.03698 20.0208 9.50621 20.3067 10.1697C20.3431 10.2546 20.3751 10.3454 20.4063 10.4225L15.1901 12.6906ZM16.9319 9.66432C16.3126 9.92988 15.9934 10.5095 16.0591 11.1891L18.6825 10.0625C18.2314 9.53362 17.6442 9.35831 16.9319 9.66432ZM19.0096 12.1153C19.009 12.1158 19.0087 12.1163 19.0081 12.1168L18.9537 12.0803C18.7972 12.3338 18.553 12.539 18.2447 12.6724C17.6582 12.9269 17.1148 12.8615 16.7246 12.5199L16.6887 12.5744C16.6883 12.5737 16.6881 12.5733 16.6876 12.5733L16.022 13.5667C16.1872 13.6813 16.3646 13.7782 16.5509 13.8558C17.2861 14.1605 18.0384 14.1465 18.7794 13.8249C19.3155 13.5932 19.736 13.2397 20.0235 12.7918L19.0096 12.1153Z" fill="white"/>
<path d="M22.2282 7.07605V12.5991L23.0889 12.9472L22.5999 14.0856L21.6499 13.691C21.4367 13.5989 21.2916 13.4579 21.1817 13.2987C21.0767 13.1365 20.998 12.9139 20.998 12.6142V7.07605H22.2282Z" fill="white"/>
<path d="M24.4584 11.1919C24.4589 10.7215 24.667 10.2998 24.9964 10.0132L24.1135 9.03088C23.5146 9.55907 23.1374 10.3308 23.1367 11.1906C23.1357 12.0507 23.5124 12.8232 24.1107 13.3528L24.9926 12.3695C24.6648 12.0816 24.458 11.6611 24.4584 11.1919Z" fill="white"/>
<path d="M26.0265 12.7591C25.8527 12.7586 25.6853 12.73 25.5291 12.6781L25.1074 13.929C25.3956 14.0256 25.7043 14.0781 26.0252 14.0786C27.4233 14.08 28.5907 13.0902 28.8611 11.7745L27.565 11.5104C27.4176 12.2238 26.7847 12.7597 26.0265 12.7591Z" fill="white"/>
<path d="M26.0302 8.30774C25.7097 8.30738 25.4012 8.35939 25.1133 8.45502L25.5312 9.70703C25.6878 9.65537 25.8552 9.62688 26.0288 9.62688C26.7889 9.62761 27.4222 10.1668 27.5661 10.8819L28.8623 10.6197C28.5957 9.30212 27.4293 8.30872 26.0302 8.30774Z" fill="white"/>
</g>
<defs>
<clipPath id="clip0_3112_738">
<rect x="0.5" width="32" height="20.3636" rx="2" fill="white"/>
</clipPath>
</defs>
</svg>
