<svg width="33" height="21" viewBox="0 0 33 21" fill="none" xmlns="http://www.w3.org/2000/svg">
<g clip-path="url(#clip0_3112_734)">
<rect x="0.960881" y="0.460881" width="31.0782" height="19.4419" fill="#0D0C0C" stroke="#0D0C0C" stroke-width="0.921762"/>
<g clip-path="url(#clip1_3112_734)">
<rect x="1.95508" y="6.54541" width="29.0909" height="7.27273" fill="white"/>
<path fill-rule="evenodd" clip-rule="evenodd" d="M8.23967 7.47566C8.3923 7.36588 8.5889 6.86553 8.36431 6.65724C8.29317 6.5913 8.17413 6.57216 8.00823 6.60148C7.85428 6.62864 7.76572 6.68331 7.70558 6.76889C7.6088 6.90648 7.52025 7.32154 7.66998 7.47573C7.81577 7.62574 8.14254 7.5455 8.23967 7.47566ZM6.06766 6.65724C5.9583 7.3986 5.83511 8.12552 5.71158 8.85208C4.91847 8.86082 4.10877 8.89296 3.34373 8.83344C3.4882 8.12263 3.59183 7.36906 3.73541 6.65724H2.88084C2.57495 8.47045 2.29664 10.3126 1.95508 12.0885H2.82748C2.96435 11.1775 3.09224 10.2572 3.27252 9.39143C4.01635 9.3723 4.90782 9.33893 5.62261 9.41007C5.47523 10.3101 5.29715 11.178 5.15973 12.0885H6.03213C6.31244 10.2486 6.60776 8.42423 6.95789 6.65717H6.06766V6.65724ZM18.4055 8.2197C17.7267 7.93326 17.193 8.4173 16.9456 8.87071C17.0017 8.66899 17.0248 8.43275 17.0703 8.2197H16.3937C16.2283 9.55979 15.9845 10.8179 15.7528 12.0886H16.5184C16.6257 11.3344 16.672 10.3176 16.91 9.59611C17.1003 9.01956 17.5981 8.52838 18.3165 8.79632C18.3266 8.58363 18.3848 8.42127 18.4055 8.2197ZM18.8327 11.1771C18.7622 10.9866 18.7439 10.6722 18.7615 10.433C18.8012 9.89562 18.9886 9.24128 19.2779 8.94503C19.6771 8.53618 20.4652 8.60385 21.0938 8.83344C21.1132 8.61208 21.1559 8.41463 21.1828 8.20106C20.1519 8.02513 19.1735 8.13462 18.6547 8.7033C18.1469 9.25999 17.8141 10.5395 18.0494 11.3445C18.3248 12.2866 19.5598 12.3378 20.5597 11.977C20.604 11.7876 20.6274 11.5765 20.6665 11.3817C20.1202 11.6784 19.0756 11.8325 18.8327 11.1771ZM27.4318 8.23826C26.7552 7.88487 26.1919 8.47789 25.972 8.83344C26.0346 8.65101 26.0382 8.40668 26.0965 8.2197H25.42C25.2376 9.54816 25.0177 10.8375 24.7613 12.0886H25.5447C25.5497 11.5758 25.646 11.1965 25.7227 10.6936C25.8864 9.6198 26.1267 8.44229 27.3251 8.79639C27.3648 8.61461 27.3813 8.40863 27.4318 8.23826ZM7.45638 8.2197C7.43564 8.2228 7.43702 8.24909 7.43854 8.27545C7.26987 9.59344 7.04154 10.8492 6.79765 12.0885H7.56318C7.74713 10.7616 7.9579 9.46279 8.2219 8.21963H7.45638V8.2197ZM14.1861 8.14524C13.6328 8.1898 13.1653 8.35605 12.833 8.72186C12.4255 9.17043 12.0954 10.1623 12.1921 11.0655C12.3301 12.3541 13.8657 12.3078 15.0941 11.9955C15.115 11.7694 15.1674 11.576 15.2009 11.3631C14.6949 11.5609 13.8163 11.837 13.2958 11.4933C12.9029 11.2338 12.9006 10.5765 13.0288 10.0053C13.8543 9.97781 14.7124 9.98308 15.5391 10.0053C15.5915 9.60037 15.7415 9.15895 15.6103 8.75906C15.4371 8.23118 14.817 8.09446 14.1861 8.14524ZM14.916 9.55892H13.1178C13.1748 9.12703 13.5467 8.65231 14.1326 8.62891C14.6841 8.60681 15.079 8.84038 14.916 9.55892ZM11.2841 8.2197C10.6361 7.9654 9.84649 8.26895 9.50409 8.5577C9.50534 8.57041 9.49594 8.57214 9.48591 8.57308C9.49172 8.56795 9.49801 8.56283 9.50409 8.5577C9.50402 8.55669 9.50395 8.55575 9.50375 8.55452C9.50948 8.43037 9.55138 8.34385 9.55718 8.2197H8.89846C8.62395 10.1277 8.29843 11.9824 7.95486 13.8184H8.72039C8.8312 13.1034 8.90441 12.349 9.0587 11.6794C9.23353 12.3837 10.3751 12.2491 10.8569 11.977C11.8507 11.4155 12.6174 8.74288 11.2841 8.2197ZM10.6787 11.3632C10.2692 11.8164 9.26221 11.8095 9.18327 11.0469C9.14891 10.7151 9.26719 10.3672 9.32574 10.024C9.38492 9.6765 9.4275 9.34312 9.48591 9.03812C9.88935 8.52347 11.0748 8.46128 11.195 9.31712C11.2995 10.0601 11.0179 10.9878 10.6787 11.3632ZM30.2803 6.54565C30.2147 7.14669 30.127 7.72469 30.0133 8.27545C28.1355 7.65441 26.9839 9.09792 27.0045 10.8795C27.0086 11.2241 27.0654 11.5658 27.2716 11.8095C27.6271 12.2295 28.6449 12.33 29.1588 11.9769C29.2583 11.9086 29.3599 11.7842 29.4258 11.6979C29.4754 11.633 29.554 11.4629 29.5682 11.5119C29.5412 11.7007 29.5008 11.8756 29.4971 12.0885H30.1914C30.3252 10.0831 30.7389 8.37014 31.046 6.54565H30.2803ZM28.5713 11.6607C28.0559 11.6723 27.7997 11.3391 27.7879 10.7866C27.7674 9.81892 28.1736 8.74389 28.9985 8.64747C29.3826 8.60262 29.6607 8.69593 29.9421 8.79632C29.6838 9.88313 29.777 11.6337 28.5713 11.6607ZM21.9661 8.2197C21.9284 8.4407 21.8706 8.64068 21.8237 8.85208C22.2755 8.73371 23.6822 8.37086 23.8177 9.00086C23.8627 9.21016 23.7851 9.43253 23.7287 9.59611C22.4567 9.47023 21.4199 9.69101 21.1472 10.6377C20.9645 11.2718 21.1676 11.8958 21.5567 12.07C22.306 12.4054 23.2173 12.0212 23.5328 11.4934C23.5001 11.6761 23.469 11.8607 23.4795 12.0886H24.1382C24.1452 11.4295 24.237 10.896 24.334 10.3029C24.4167 9.79783 24.5723 9.29783 24.5477 8.85208C24.491 7.83121 22.8723 8.19233 21.9661 8.2197ZM23.2124 11.3445C22.8179 11.7481 21.7104 11.8627 21.8237 10.8981C21.9178 10.097 22.7527 9.92682 23.6574 10.0424C23.5902 10.4807 23.513 11.0371 23.2124 11.3445Z" fill="#0D0C0C"/>
</g>
</g>
<defs>
<clipPath id="clip0_3112_734">
<rect x="0.5" width="32" height="20.3636" rx="2" fill="white"/>
</clipPath>
<clipPath id="clip1_3112_734">
<rect x="1.95508" y="6.54541" width="29.0909" height="7.27273" fill="white"/>
</clipPath>
</defs>
</svg>
