<svg width="33" height="21" viewBox="0 0 33 21" fill="none" xmlns="http://www.w3.org/2000/svg">
<rect x="0.476562" y="0.363647" width="31.9771" height="20.3491" rx="1.45351" fill="#0D0C0C"/>
<path d="M12.0326 9.30996C12.0326 11.6044 12.0326 13.8988 12.0326 16.1948C12.0326 17.5152 11.2749 18.5679 10.011 19.007C9.72126 19.1077 9.41563 19.1439 9.11 19.1455C7.76809 19.1502 6.42458 19.1455 5.08267 19.1518C4.90598 19.1518 4.83594 19.1046 4.83594 18.9189C4.84071 17.0446 4.83912 15.1719 4.83912 13.2977C4.83912 13.0915 4.86777 13.0695 5.0763 13.1183C6.24311 13.3952 7.42743 13.4613 8.61812 13.3937C9.2262 13.3591 9.82154 13.2363 10.3723 12.9326C11.0536 12.558 11.3784 11.9789 11.3975 11.2409C11.4245 10.1598 11.4022 9.07863 11.4086 7.99751C11.4086 7.83542 11.3449 7.79608 11.1937 7.79765C10.5124 7.80395 9.83269 7.80552 9.15138 7.79765C8.97947 7.79608 8.93649 7.85745 8.93808 8.01797C8.94445 9.04244 8.94285 10.0669 8.93967 11.0929C8.93967 11.3589 8.89828 11.6186 8.75502 11.853C8.39049 12.451 7.80311 12.5769 7.16956 12.5407C6.53919 12.5061 5.92634 12.3535 5.34055 12.1143C5.21161 12.0623 5.08745 11.9978 4.9601 11.9427C4.87255 11.905 4.83594 11.8404 4.84071 11.7492C4.8423 11.7051 4.84071 11.661 4.84071 11.617C4.84071 9.3855 4.84071 7.15244 4.84071 4.92096C4.84071 4.35443 4.96647 3.81938 5.26414 3.3394C5.80695 2.46129 6.60446 1.96086 7.6487 1.93883C9.03518 1.9105 10.4233 1.93568 11.8097 1.92938C12.0087 1.92938 12.0358 2.01594 12.0358 2.18117C12.0326 4.55744 12.0342 6.9337 12.0342 9.30996H12.0326Z" fill="white"/>
<path d="M20.0763 9.22331C20.0763 11.5114 20.0794 13.7996 20.0763 16.0877C20.0763 16.8462 19.8693 17.5402 19.3599 18.1241C18.7741 18.796 18.0228 19.1359 17.1314 19.1438C15.7895 19.1564 14.4476 19.1438 13.104 19.1501C12.9258 19.1501 12.8573 19.0998 12.8589 18.9156C12.8637 16.8478 12.8621 14.78 12.8637 12.7106C12.8637 12.6225 12.835 12.4588 13.0133 12.5863C13.6819 13.0662 14.446 13.2787 15.253 13.3574C16.0585 13.4361 16.8639 13.4376 17.6694 13.3432C18.1247 13.2897 18.5736 13.2126 19.0225 13.1213C19.1657 13.093 19.2087 13.0269 19.2055 12.8916C19.1992 12.6272 19.196 12.3628 19.2055 12.1C19.2135 11.9206 19.1323 11.9269 19.0145 11.9914C18.6022 12.2117 18.1565 12.3408 17.7028 12.4336C16.9626 12.5847 16.2256 12.6256 15.5204 12.2841C14.9506 12.0087 14.6418 11.5445 14.551 10.9308C14.4476 10.2242 14.5622 9.57896 15.1034 9.05807C15.4647 8.71029 15.928 8.58282 16.4039 8.53876C17.3049 8.45692 18.1549 8.67881 18.9715 9.04391C19.1896 9.14148 19.2023 9.13833 19.2023 8.90228C19.2023 8.65049 19.1992 8.3987 19.2023 8.14848C19.2039 8.03518 19.1562 7.97538 19.0448 7.9502C18.4797 7.8243 17.9098 7.72988 17.3335 7.68425C16.7239 7.63546 16.1142 7.63074 15.5045 7.68267C14.6338 7.75663 13.7949 7.92817 13.0643 8.44119C13.0165 8.47581 12.9656 8.54348 12.8987 8.50728C12.835 8.47266 12.8605 8.39398 12.8605 8.33418C12.8605 7.17122 12.8509 6.00827 12.8605 4.84532C12.8716 3.56591 13.6262 2.51784 14.8407 2.07563C15.0986 1.98121 15.3692 1.93243 15.643 1.93086C17.0486 1.92771 18.4542 1.93243 19.8614 1.92456C20.0778 1.92456 20.0763 2.03944 20.0763 2.18894C20.0763 3.824 20.0763 5.45748 20.0763 7.09254C20.0763 7.80227 20.0763 8.51358 20.0763 9.22331Z" fill="white"/>
<path d="M25.6059 10.4335C25.7444 10.3926 25.8717 10.3596 25.9959 10.3186C26.5419 10.1345 26.8682 9.69547 26.8714 9.14625C26.8746 8.55769 26.5801 8.15326 26.0118 7.9471C25.6839 7.82908 25.3417 7.8039 24.9978 7.80232C23.7132 7.7976 22.427 7.80232 21.1424 7.80232C20.883 7.80232 20.8782 7.79918 20.8782 7.53637C20.8782 6.65668 20.8734 5.77542 20.8782 4.89573C20.8861 3.5817 21.6152 2.54465 22.8521 2.08198C23.1083 1.98599 23.3805 1.9372 23.6543 1.93563C25.0599 1.93248 26.4655 1.93878 27.8727 1.93091C28.0844 1.93091 28.0908 2.03792 28.0908 2.19214C28.0892 3.68871 28.0908 5.18371 28.0908 6.68029C28.0908 9.81664 28.0939 12.9546 28.0892 16.0909C28.0876 17.0886 27.7326 17.9353 26.9144 18.5537C26.405 18.9409 25.8192 19.1407 25.1777 19.1439C23.8231 19.1517 22.4668 19.1439 21.1122 19.1502C20.9419 19.1502 20.875 19.0951 20.875 18.922C20.8782 17.1122 20.8798 15.3009 20.875 13.4912C20.875 13.2866 20.9689 13.2551 21.144 13.2551C22.6005 13.2599 24.0571 13.2567 25.5152 13.2583C25.9689 13.2583 26.3764 13.1292 26.7393 12.857C27.4222 12.3471 27.4126 11.1952 26.5467 10.7609C26.2856 10.6302 26.0166 10.5154 25.7173 10.5028C25.6807 10.5028 25.6393 10.4996 25.6075 10.432L25.6059 10.4335Z" fill="white"/>
<path d="M23.3042 10.8758C23.5652 10.8758 23.8263 10.8711 24.0874 10.8758C24.4885 10.8853 24.8053 11.2189 24.8116 11.6312C24.8164 12.0341 24.4965 12.3882 24.1001 12.396C23.5716 12.4055 23.0447 12.396 22.5162 12.4023C22.3634 12.4039 22.3188 12.3409 22.3204 12.1993C22.3268 11.8216 22.3268 11.4455 22.3204 11.0678C22.3172 10.9183 22.3777 10.8696 22.5226 10.8727C22.7837 10.8806 23.0447 10.8743 23.3058 10.8743L23.3042 10.8758Z" fill="white"/>
<path d="M23.2356 10.0257C22.9873 10.0257 22.7406 10.0226 22.4923 10.0257C22.3729 10.0273 22.3188 9.98321 22.3203 9.86046C22.3235 9.50324 22.3235 9.14601 22.3203 8.78721C22.3203 8.67076 22.3617 8.61253 22.4859 8.61253C22.9555 8.61568 23.4251 8.60309 23.8947 8.61883C24.2687 8.63142 24.5409 8.87219 24.611 9.21211C24.6715 9.50324 24.4948 9.82269 24.2003 9.96747C24.1239 10.0052 24.0443 10.0194 23.9615 10.0194C23.7196 10.0194 23.4792 10.0194 23.2372 10.0194C23.2372 10.0194 23.2372 10.021 23.2372 10.0226L23.2356 10.0257Z" fill="white"/>
</svg>
