<svg width="33" height="21" viewBox="0 0 33 21" fill="none" xmlns="http://www.w3.org/2000/svg">
<g clip-path="url(#clip0_3112_684)">
<rect x="0.960881" y="0.460881" width="31.0782" height="19.4419" fill="#0D0C0C" stroke="#0D0C0C" stroke-width="0.921762"/>
<g clip-path="url(#clip1_3112_684)">
<path d="M13.7526 10.1819C13.7526 7.86191 14.8269 5.79564 16.4996 4.46413C15.2764 3.49019 13.7326 2.90918 12.0549 2.90918C8.08318 2.90918 4.86328 6.16534 4.86328 10.1819C4.86328 14.1985 8.08318 17.4546 12.0549 17.4546C13.7326 17.4546 15.2762 16.8736 16.4996 15.8997C14.8269 14.568 13.7526 12.5019 13.7526 10.1819Z" fill="white"/>
<path d="M28.1364 10.1819C28.1364 14.1985 24.9165 17.4546 20.9448 17.4546C19.267 17.4546 17.7235 16.8736 16.5 15.8997C18.1728 14.568 19.247 12.5019 19.247 10.1819C19.247 7.86191 18.1728 5.79564 16.5 4.46413C17.7235 3.49019 19.267 2.90918 20.9448 2.90918C24.9167 2.90918 28.1364 6.16534 28.1364 10.1819Z" fill="white"/>
<path d="M27.4491 14.6892V14.455H27.5424V14.4073H27.3047V14.455H27.398V14.6892H27.4491ZM27.9106 14.6892V14.4067H27.8377L27.7538 14.6009L27.6699 14.4067H27.597V14.689H27.6485V14.476L27.7272 14.6597H27.7806L27.8593 14.4756V14.689H27.9106V14.6892Z" fill="white"/>
</g>
</g>
<defs>
<clipPath id="clip0_3112_684">
<rect x="0.5" width="32" height="20.3636" rx="2" fill="white"/>
</clipPath>
<clipPath id="clip1_3112_684">
<rect x="4.86328" y="2.90918" width="23.2727" height="14.5455" fill="white"/>
</clipPath>
</defs>
</svg>
