<svg width="33" height="21" viewBox="0 0 33 21" fill="none" xmlns="http://www.w3.org/2000/svg">
<g clip-path="url(#clip0_3112_782)">
<rect x="0.915959" y="0.824528" width="31.0782" height="19.4419" fill="#0D0C0C" stroke="#0D0C0C" stroke-width="0.921762"/>
<g clip-path="url(#clip1_3112_782)">
<path d="M15.4121 14.3565C15.3347 14.3565 15.2445 14.3756 15.1554 14.3968V14.7484C15.2172 14.7716 15.2876 14.7827 15.3553 14.7827C15.5266 14.7827 15.6079 14.7232 15.6079 14.568C15.6079 14.422 15.5413 14.3565 15.4121 14.3565ZM15.0977 15.0094V14.3142H15.1447L15.1496 14.3444C15.2289 14.3253 15.3386 14.3001 15.4169 14.3001C15.4806 14.3001 15.5413 14.3101 15.5922 14.3524C15.651 14.4018 15.6696 14.4814 15.6696 14.568C15.6696 14.6588 15.6402 14.7444 15.56 14.7917C15.5041 14.8239 15.4287 14.837 15.3611 14.837C15.2915 14.837 15.225 14.8258 15.1555 14.8048V15.0094H15.0977Z" fill="white"/>
<path d="M16.0998 14.3544C15.9285 14.3544 15.852 14.4099 15.852 14.565C15.852 14.7151 15.9275 14.7827 16.0998 14.7827C16.2703 14.7827 16.3467 14.7282 16.3467 14.573C16.3466 14.423 16.2712 14.3544 16.0998 14.3544ZM16.3201 14.7827C16.2634 14.8249 16.187 14.837 16.0998 14.837C16.0108 14.837 15.9344 14.8238 15.8785 14.7827C15.8158 14.7374 15.7904 14.6627 15.7904 14.5691C15.7904 14.4763 15.8158 14.4009 15.8785 14.3544C15.9344 14.3131 16.0108 14.3001 16.0998 14.3001C16.188 14.3001 16.2634 14.3131 16.3201 14.3544C16.3839 14.4009 16.4083 14.4763 16.4083 14.568C16.4083 14.6618 16.3828 14.7374 16.3201 14.7827Z" fill="white"/>
<path d="M17.1314 14.823L16.9404 14.4009H16.9364L16.7484 14.823H16.6965L16.4928 14.3142H16.5564L16.7259 14.7413H16.7298L16.9139 14.3142H16.9668L17.1557 14.7413H17.1597L17.3252 14.3142H17.3869L17.1832 14.823H17.1314Z" fill="white"/>
<path d="M17.7564 14.3534C17.5977 14.3534 17.5438 14.426 17.534 14.5308H17.9786C17.9738 14.415 17.916 14.3534 17.7564 14.3534ZM17.7544 14.8371C17.6594 14.8371 17.5977 14.823 17.5487 14.7805C17.4909 14.7292 17.4714 14.6548 17.4714 14.5691C17.4714 14.4874 17.4979 14.4009 17.5635 14.3514C17.6183 14.3121 17.6859 14.3001 17.7564 14.3001C17.82 14.3001 17.8935 14.3071 17.9542 14.3495C18.0257 14.3987 18.0394 14.4855 18.0394 14.5841H17.5321C17.534 14.689 17.5674 14.7817 17.7593 14.7817C17.8504 14.7817 17.9356 14.7665 18.015 14.7524V14.8058C17.9326 14.821 17.8415 14.8371 17.7544 14.8371Z" fill="white"/>
<path d="M18.2052 14.823V14.3142H18.2522L18.2571 14.3445C18.3619 14.3173 18.4109 14.3001 18.5029 14.3001H18.5098V14.3566H18.4961C18.4187 14.3566 18.3717 14.3676 18.263 14.3968V14.823H18.2052Z" fill="white"/>
<path d="M18.8454 14.3534C18.6867 14.3534 18.6329 14.426 18.623 14.5308H19.0677C19.0628 14.415 19.005 14.3534 18.8454 14.3534ZM18.8434 14.8371C18.7484 14.8371 18.6867 14.823 18.6378 14.7805C18.5799 14.7292 18.5604 14.6548 18.5604 14.5691C18.5604 14.4874 18.5869 14.4009 18.6525 14.3514C18.7073 14.3121 18.7749 14.3001 18.8454 14.3001C18.909 14.3001 18.9825 14.3071 19.0432 14.3495C19.1147 14.3987 19.1284 14.4855 19.1284 14.5841H18.6211C18.623 14.689 18.6564 14.7817 18.8483 14.7817C18.9394 14.7817 19.0246 14.7665 19.104 14.7524V14.8058C19.0216 14.821 18.9305 14.8371 18.8434 14.8371Z" fill="white"/>
<path d="M19.7614 14.3888C19.6997 14.3655 19.6292 14.3544 19.5616 14.3544C19.3902 14.3544 19.3089 14.4139 19.3089 14.5691C19.3089 14.7161 19.3755 14.7806 19.5047 14.7806C19.5821 14.7806 19.6723 14.7615 19.7614 14.7413V14.3888ZM19.7722 14.823L19.7673 14.7927C19.688 14.8118 19.5783 14.8371 19.4999 14.8371C19.4363 14.8371 19.3755 14.828 19.3246 14.7846C19.2659 14.7353 19.2472 14.6557 19.2472 14.5691C19.2472 14.4785 19.2766 14.3927 19.3569 14.3464C19.4128 14.3132 19.4882 14.3001 19.5567 14.3001C19.6253 14.3001 19.6918 14.3123 19.7614 14.3323V14.0996H19.8192V14.823L19.7722 14.823Z" fill="white"/>
<path d="M20.6664 14.3565C20.589 14.3565 20.4988 14.3756 20.4097 14.3968V14.7474C20.4724 14.7716 20.5419 14.7827 20.6096 14.7827C20.7809 14.7827 20.8622 14.7233 20.8622 14.568C20.8622 14.422 20.7956 14.3565 20.6664 14.3565ZM20.8142 14.7917C20.7584 14.8239 20.683 14.837 20.6154 14.837C20.542 14.837 20.4686 14.8239 20.3941 14.7987L20.3912 14.823H20.352V14.0997H20.4098V14.3424C20.4891 14.3244 20.5959 14.3001 20.6712 14.3001C20.7349 14.3001 20.7956 14.3101 20.8465 14.3525C20.9053 14.4019 20.9239 14.4815 20.9239 14.5681C20.9239 14.6588 20.8945 14.7444 20.8142 14.7917Z" fill="white"/>
<path d="M21.0005 15.0184V14.963C21.0289 14.966 21.0555 14.9681 21.074 14.9681C21.1455 14.9681 21.1886 14.9468 21.2287 14.8632L21.2473 14.8229L20.9888 14.3141H21.0554L21.2767 14.7533H21.2806L21.4912 14.3141H21.5568L21.2787 14.8854C21.2278 14.9892 21.1729 15.0234 21.072 15.0234C21.0496 15.0234 21.0251 15.0214 21.0005 15.0184Z" fill="white"/>
<path d="M22.3532 14.5328H22.1613V14.7112H22.3542C22.4864 14.7112 22.5363 14.696 22.5363 14.6215C22.5363 14.5418 22.4678 14.5328 22.3532 14.5328ZM22.3179 14.2436H22.1613V14.425H22.3189C22.4492 14.425 22.5011 14.4089 22.5011 14.3333C22.501 14.2528 22.4354 14.2436 22.3179 14.2436ZM22.6157 14.7747C22.5452 14.821 22.46 14.823 22.3042 14.823H22.0114V14.1329H22.2974C22.4316 14.1329 22.5138 14.1349 22.5823 14.1772C22.6313 14.2075 22.6509 14.2538 22.6509 14.3142C22.6509 14.3868 22.6216 14.4351 22.5452 14.4673V14.4713C22.6313 14.4916 22.6872 14.5369 22.6872 14.6346C22.6871 14.701 22.6637 14.7444 22.6157 14.7747Z" fill="white"/>
<path d="M23.273 14.6094C23.2151 14.6044 23.1564 14.6013 23.0947 14.6013C22.9938 14.6013 22.9586 14.6225 22.9586 14.6698C22.9586 14.7142 22.9879 14.7384 23.0653 14.7384C23.13 14.7384 23.2074 14.7233 23.273 14.7081V14.6094ZM23.3023 14.823L23.2984 14.7927C23.2142 14.814 23.1163 14.8371 23.0301 14.8371C22.9772 14.8371 22.9204 14.83 22.8802 14.7997C22.8431 14.7726 22.8254 14.7282 22.8254 14.6768C22.8254 14.6194 22.85 14.5661 22.9087 14.5389C22.9606 14.5137 23.0301 14.5117 23.0938 14.5117C23.1457 14.5117 23.2152 14.5147 23.273 14.5187V14.5096C23.273 14.4301 23.2221 14.4039 23.083 14.4039C23.0292 14.4039 22.9635 14.4068 22.9008 14.4129V14.3101C22.9704 14.3042 23.0487 14.3001 23.1134 14.3001C23.1995 14.3001 23.2887 14.3072 23.3435 14.3474C23.4003 14.3888 23.4111 14.4463 23.4111 14.5218V14.823L23.3023 14.823Z" fill="white"/>
<path d="M24.0568 14.823V14.5418C24.0568 14.4492 24.0108 14.416 23.9285 14.416C23.8678 14.416 23.7914 14.4321 23.7268 14.4482V14.823H23.5887V14.3142H23.7013L23.7061 14.3464C23.7933 14.3233 23.8903 14.3001 23.9706 14.3001C24.0313 14.3001 24.093 14.3092 24.1401 14.3525C24.1792 14.3888 24.1939 14.4391 24.1939 14.5117V14.823H24.0568Z" fill="white"/>
<path d="M24.5839 14.8371C24.5203 14.8371 24.4507 14.828 24.3998 14.7837C24.3391 14.7333 24.3215 14.6537 24.3215 14.568C24.3215 14.4875 24.347 14.3998 24.4224 14.3505C24.4841 14.3091 24.5605 14.3001 24.6398 14.3001C24.6966 14.3001 24.7524 14.3042 24.8141 14.3101V14.4189C24.7641 14.414 24.7043 14.4099 24.6564 14.4099C24.5251 14.4099 24.4634 14.4522 24.4634 14.5691C24.4634 14.6789 24.5095 14.7262 24.6172 14.7262C24.6798 14.7262 24.7534 14.7142 24.8249 14.7001V14.8048C24.7475 14.821 24.6633 14.8371 24.5839 14.8371Z" fill="white"/>
<path d="M25.2327 14.4068C25.1015 14.4068 25.0436 14.4492 25.0436 14.5651C25.0436 14.681 25.1005 14.7304 25.2327 14.7304C25.3629 14.7304 25.4197 14.689 25.4197 14.5731C25.4197 14.4572 25.364 14.4068 25.2327 14.4068ZM25.4697 14.7837C25.4089 14.8259 25.3297 14.837 25.2327 14.837C25.1337 14.837 25.0545 14.8248 24.9947 14.7837C24.9262 14.7373 24.9017 14.6608 24.9017 14.5691C24.9017 14.4773 24.9262 14.3998 24.9947 14.3534C25.0545 14.3121 25.1338 14.3001 25.2327 14.3001C25.3306 14.3001 25.4089 14.3121 25.4697 14.3534C25.5382 14.3998 25.5617 14.4773 25.5617 14.568C25.5618 14.6597 25.5373 14.7373 25.4697 14.7837Z" fill="white"/>
<path d="M26.3589 14.8371C26.2758 14.8371 26.1857 14.823 26.118 14.7655C26.0378 14.6969 26.0133 14.5912 26.0133 14.4773C26.0133 14.3756 26.0446 14.2547 26.1493 14.1841C26.2307 14.1298 26.3315 14.1187 26.4334 14.1187C26.5078 14.1187 26.5841 14.1237 26.6675 14.1308V14.2547C26.596 14.2486 26.5078 14.2435 26.4393 14.2435C26.2483 14.2435 26.167 14.3181 26.167 14.4772C26.167 14.6395 26.2425 14.7121 26.3835 14.7121C26.4755 14.7121 26.5783 14.6929 26.6822 14.6707V14.7936C26.5783 14.8149 26.4696 14.8371 26.3589 14.8371Z" fill="white"/>
<path d="M27.0879 14.3908C26.9733 14.3908 26.9292 14.4332 26.9203 14.5107H27.2534C27.2494 14.4281 27.2024 14.3908 27.0879 14.3908ZM27.0673 14.837C26.986 14.837 26.9126 14.827 26.8577 14.7806C26.799 14.7303 26.7784 14.6547 26.7784 14.568C26.7784 14.4905 26.8029 14.4039 26.8714 14.3534C26.9321 14.3091 27.0095 14.3001 27.0878 14.3001C27.1583 14.3001 27.2416 14.3081 27.3023 14.3514C27.3816 14.4089 27.3885 14.4976 27.3895 14.6024H26.9194C26.9224 14.6799 26.9625 14.7304 27.1015 14.7304C27.1878 14.7304 27.2837 14.7173 27.365 14.7041V14.8038C27.27 14.82 27.1662 14.837 27.0673 14.837Z" fill="white"/>
<path d="M28.0038 14.823V14.5418C28.0038 14.4492 27.9578 14.416 27.8755 14.416C27.8148 14.416 27.7385 14.4321 27.6738 14.4482V14.823H27.5357V14.3142H27.6484L27.6533 14.3464C27.7404 14.3233 27.8373 14.3001 27.9177 14.3001C27.9784 14.3001 28.0401 14.3092 28.0871 14.3525C28.1263 14.3888 28.141 14.4391 28.141 14.5117V14.823H28.0038Z" fill="white"/>
<path d="M28.534 14.8371C28.4674 14.8371 28.4066 14.8179 28.3734 14.7645C28.3489 14.7282 28.3371 14.6789 28.3371 14.6104V14.4199H28.2372V14.3142H28.3371L28.3519 14.16H28.4742V14.3142H28.6691V14.4199H28.4742V14.5832C28.4742 14.6225 28.4772 14.6557 28.4879 14.6799C28.5026 14.7141 28.5349 14.7272 28.578 14.7272C28.6104 14.7272 28.6495 14.7222 28.6769 14.7172V14.8189C28.6319 14.828 28.58 14.8371 28.534 14.8371Z" fill="white"/>
<path d="M28.8038 14.823V14.3142H28.9165L28.9214 14.3464C29.0125 14.3202 29.08 14.3001 29.1662 14.3001C29.1701 14.3001 29.176 14.3001 29.1838 14.301V14.422C29.1681 14.421 29.1496 14.421 29.1359 14.421C29.0682 14.421 29.0174 14.429 28.9419 14.4473V14.823H28.8038Z" fill="white"/>
<path d="M29.6858 14.6094C29.628 14.6044 29.5693 14.6013 29.5075 14.6013C29.4067 14.6013 29.3714 14.6225 29.3714 14.6698C29.3714 14.7142 29.4008 14.7384 29.4781 14.7384C29.5428 14.7384 29.6202 14.7233 29.6858 14.7081L29.6858 14.6094ZM29.7152 14.823L29.7112 14.7927C29.627 14.814 29.5291 14.8371 29.4429 14.8371C29.39 14.8371 29.3332 14.83 29.293 14.7997C29.2559 14.7726 29.2382 14.7282 29.2382 14.6768C29.2382 14.6194 29.2627 14.5661 29.3215 14.5389C29.3734 14.5137 29.4429 14.5117 29.5066 14.5117C29.5585 14.5117 29.628 14.5147 29.6858 14.5187V14.5096C29.6858 14.4301 29.6349 14.4039 29.4958 14.4039C29.4419 14.4039 29.3763 14.4068 29.3137 14.4129V14.3101C29.3832 14.3042 29.4616 14.3001 29.5262 14.3001C29.6123 14.3001 29.7015 14.3072 29.7563 14.3474C29.8131 14.3888 29.8239 14.4463 29.8239 14.5218V14.823L29.7152 14.823Z" fill="white"/>
<path d="M30.0015 14.0996H30.1396V14.823H30.0015V14.0996Z" fill="white"/>
<path d="M13.9877 15.0756C13.865 15.0756 13.7656 14.9733 13.7656 14.8471V9.0782C13.7656 7.89244 14.7033 6.92781 15.8559 6.92781L17.5118 6.93031C18.6607 6.93263 19.5952 7.89606 19.5952 9.07791V10.3058C19.5952 11.4916 18.6576 12.4563 17.505 12.4563H15.1655C15.0428 12.4563 14.9434 12.354 14.9434 12.2278C14.9434 12.1016 15.0428 11.9993 15.1655 11.9993H17.505C18.4126 11.9993 19.151 11.2396 19.151 10.3059V9.07797C19.151 8.14766 18.4153 7.38925 17.5111 7.38738L15.8556 7.38489C14.9483 7.38489 14.2099 8.14454 14.2099 9.0782V14.8471C14.2099 14.9733 14.1104 15.0756 13.9877 15.0756Z" fill="white"/>
<path d="M21.3206 12.4821C21.1979 12.4821 21.0985 12.3798 21.0985 12.2536V7.94426C21.0985 7.63533 20.8542 7.38402 20.554 7.38402H19.8358C19.7131 7.38402 19.6137 7.2817 19.6137 7.15551C19.6137 7.02932 19.7131 6.927 19.8358 6.927H20.554C21.0992 6.927 21.5427 7.38334 21.5427 7.94432V12.2537C21.5427 12.3798 21.4433 12.4821 21.3206 12.4821Z" fill="white"/>
<path d="M21.1666 6.48789L20.8409 6.15281C20.7601 6.06972 20.7601 5.93491 20.8409 5.85176L21.1664 5.51691C21.2473 5.43365 21.3786 5.43365 21.4594 5.51691L21.785 5.85176C21.8658 5.93491 21.8658 6.06972 21.785 6.15281L21.4593 6.48789C21.3785 6.57103 21.2475 6.57103 21.1666 6.48789Z" fill="white"/>
<path d="M26.4441 9.67687C26.2371 9.67687 26.0426 9.59396 25.8962 9.44332L24.2303 7.72953C24.0114 7.50425 23.7203 7.38022 23.4106 7.38022H22.6984C22.5757 7.38022 22.4763 7.2779 22.4763 7.15171C22.4763 7.02552 22.5757 6.9232 22.6984 6.9232H23.4106C23.839 6.9232 24.2417 7.09477 24.5445 7.40642L26.2104 9.12021C26.2728 9.18447 26.3558 9.2198 26.444 9.2198C26.5323 9.2198 26.6152 9.18441 26.6776 9.12021L28.3374 7.4126C28.6403 7.101 29.043 6.92944 29.4713 6.92944H30.0503C30.173 6.92944 30.2724 7.03175 30.2724 7.15795C30.2724 7.28414 30.173 7.38645 30.0503 7.38645H29.4713C29.1617 7.38645 28.8706 7.51049 28.6516 7.73577L26.9918 9.44332C26.8455 9.5939 26.651 9.67687 26.4441 9.67687Z" fill="white"/>
<path d="M23.4106 12.4444H22.6984C22.5757 12.4444 22.4763 12.3421 22.4763 12.2159C22.4763 12.0897 22.5758 11.9874 22.6984 11.9874H23.4106C23.7204 11.9874 24.0114 11.8633 24.2304 11.6381L25.8963 9.92421C26.0426 9.77363 26.2372 9.69071 26.4441 9.69071C26.651 9.69071 26.8456 9.77363 26.992 9.92421L28.6518 11.6318C28.8707 11.857 29.1618 11.9811 29.4715 11.9811H30.0505C30.1732 11.9811 30.2726 12.0834 30.2726 12.2096C30.2726 12.3358 30.1731 12.4381 30.0505 12.4381H29.4715C29.0431 12.4381 28.6404 12.2665 28.3376 11.9549L26.6778 10.2474C26.6154 10.1831 26.5324 10.1478 26.4442 10.1478C26.3559 10.1478 26.273 10.1832 26.2106 10.2474L24.5446 11.9612C24.2418 12.2728 23.839 12.4444 23.4106 12.4444Z" fill="white"/>
<path d="M9.74202 13.3115C9.38457 13.3115 9.04834 13.1683 8.79563 12.9083L7.42905 11.5025C7.33313 11.4035 7.16587 11.4038 7.07 11.5025L5.69846 12.9135C5.4457 13.1734 5.10947 13.3166 4.75201 13.3166H4.48271L6.21342 15.0972C6.75395 15.6532 7.63033 15.6532 8.17086 15.0972L9.90658 13.3115H9.74202Z" fill="white"/>
<path d="M4.75198 8.33855C5.10944 8.33855 5.44567 8.48182 5.69837 8.74175L7.06992 10.153C7.16871 10.2546 7.33001 10.255 7.42902 10.1529L8.79555 8.74691C9.04831 8.48698 9.38454 8.34377 9.74199 8.34377H9.9066L8.17089 6.55807C7.63035 6.00197 6.75397 6.00197 6.21344 6.55807L4.48274 8.33861L4.75198 8.33855Z" fill="white"/>
<path d="M11.3423 9.8207L10.2933 8.74162C10.2702 8.75115 10.2453 8.7571 10.2188 8.7571H9.74199C9.4954 8.7571 9.25405 8.85993 9.0799 9.03932L7.71332 10.4453C7.58548 10.5768 7.41744 10.6427 7.24958 10.6427C7.08154 10.6427 6.91368 10.5768 6.78578 10.4454L5.41413 9.03422C5.23987 8.85488 4.99857 8.752 4.75204 8.752H4.16564C4.14066 8.752 4.11723 8.74593 4.09518 8.73737L3.04212 9.82076C2.50159 10.3768 2.50159 11.2784 3.04212 11.8346L4.09513 12.9179C4.11718 12.9093 4.14066 12.9033 4.16564 12.9033H4.75204C4.99863 12.9033 5.23993 12.8004 5.41413 12.6211L6.78567 11.21C7.03358 10.9552 7.46568 10.9551 7.71332 11.2101L9.0799 12.6159C9.2541 12.7953 9.49545 12.8981 9.74199 12.8981H10.2188C10.2453 12.8981 10.2702 12.904 10.2934 12.9135L11.3423 11.8345C11.8828 11.2784 11.8828 10.3768 11.3423 9.8207Z" fill="white"/>
</g>
</g>
<defs>
<clipPath id="clip0_3112_782">
<rect x="0.455078" y="0.363647" width="32" height="20.3636" rx="2" fill="white"/>
</clipPath>
<clipPath id="clip1_3112_782">
<rect x="2.63672" y="5.45447" width="27.6364" height="10.1818" fill="white"/>
</clipPath>
</defs>
</svg>
