<svg width="80" height="80" viewBox="0 0 80 80" fill="none" xmlns="http://www.w3.org/2000/svg">
<rect width="80" height="80" rx="40" fill="#C8C8C8"/>
<g clip-path="url(#clip0_1_2)">
<path d="M33 28.985V51.015C33.0033 51.1908 33.0528 51.3626 33.1437 51.5132C33.2345 51.6637 33.3635 51.7876 33.5175 51.8724C33.6715 51.9572 33.8452 51.9999 34.021 51.9962C34.1967 51.9925 34.3684 51.9425 34.5188 51.8513L52.5287 40.8362C52.6726 40.7492 52.7916 40.6265 52.8741 40.48C52.9567 40.3335 53.0001 40.1682 53.0001 40C53.0001 39.8318 52.9567 39.6665 52.8741 39.52C52.7916 39.3735 52.6726 39.2508 52.5287 39.1637L34.5188 28.1487C34.3684 28.0575 34.1967 28.0075 34.021 28.0038C33.8452 28.0001 33.6715 28.0428 33.5175 28.1276C33.3635 28.2124 33.2345 28.3363 33.1437 28.4868C33.0528 28.6374 33.0033 28.8092 33 28.985Z" stroke="white" stroke-width="3" stroke-linecap="round" stroke-linejoin="round"/>
</g>
<defs>
<clipPath id="clip0_1_2">
<rect width="32" height="32" fill="white" transform="translate(24 24)"/>
</clipPath>
</defs>
</svg>
