<svg width="33" height="21" viewBox="0 0 33 21" fill="none" xmlns="http://www.w3.org/2000/svg">
<g clip-path="url(#clip0_3112_676)">
<rect x="0.960881" y="0.460881" width="31.0782" height="19.4419" fill="#0D0C0C" stroke="#0D0C0C" stroke-width="0.921762"/>
<g clip-path="url(#clip1_3112_676)">
<path d="M10.5246 6.54629V6.54541L8.40979 11.9698L8.18763 10.9393C8.19051 10.9464 8.19385 10.9536 8.19674 10.9607L7.46766 7.57516C7.30292 6.96642 6.77733 6.55571 6.06359 6.54716H2.71439L2.67969 6.69469C3.59207 6.90826 4.4528 7.27725 5.21761 7.74197L7.1308 14.5214H9.41451L12.8087 6.54629H10.5246Z" fill="white"/>
<path d="M12.3301 14.5295H14.4891L15.8387 6.54541H13.6807L12.3301 14.5295Z" fill="white"/>
<path d="M27.8465 6.57031H26.1767C25.6619 6.57031 25.2707 6.71061 25.0482 7.21245L21.8418 14.5296H24.107L24.7311 12.9454H27.2656L27.589 14.536H29.5871L27.8465 6.57031ZM25.3593 11.3466C25.403 11.3508 26.2285 8.7608 26.2285 8.7608L26.8864 11.3466H25.3593Z" fill="white"/>
<path d="M20.1904 9.79819C19.4361 9.44442 18.9736 9.20522 18.9736 8.84335C18.9826 8.51434 19.3645 8.17722 20.2174 8.17722C20.9186 8.16047 21.4338 8.31709 21.8251 8.47283L22.0211 8.55585L22.3142 6.8856C21.8881 6.72898 21.2118 6.55615 20.3768 6.55615C18.2454 6.55615 16.7444 7.60901 16.7349 9.11497C16.7174 10.2264 17.8094 10.8429 18.6268 11.213C19.4622 11.5925 19.7463 11.8385 19.7463 12.1756C19.7369 12.6934 19.0709 12.9321 18.4498 12.9321C17.5888 12.9321 17.1259 12.8093 16.4238 12.521L16.1396 12.3978L15.8379 14.1338C16.3449 14.3477 17.2776 14.5364 18.2454 14.5459C20.5106 14.5459 21.985 13.5088 22.0034 11.904C22.0107 11.0235 21.4347 10.3493 20.1904 9.79819Z" fill="white"/>
</g>
</g>
<defs>
<clipPath id="clip0_3112_676">
<rect x="0.5" width="32" height="20.3636" rx="2" fill="white"/>
</clipPath>
<clipPath id="clip1_3112_676">
<rect x="2.68164" y="6.54541" width="26.9091" height="8" fill="white"/>
</clipPath>
</defs>
</svg>
